<svg width="632" height="500" viewBox="0 0 632 500" fill="none" xmlns="http://www.w3.org/2000/svg">
<g clip-path="url(#clip0_51_3513)">
<rect width="632" height="500" rx="16" fill="#F8FAFC"/>
<circle cx="610" cy="20" r="16" fill="#FFE9ED" stroke="white" stroke-width="16"/>
<path d="M82.494 630C68.5516 630 54.7878 625.848 41.9179 617.693C-2.76953 589.225 19.7529 551.861 29.4054 535.848C67.4791 472.536 105.91 408.038 143.09 345.616L160.608 316.11C163.333 311.383 159.857 305.434 154.401 305.434H134.153C115.205 305.434 96.4365 305.286 77.8465 305.286C45.4929 305.286 19.2167 305.434 -4.73578 305.731H-6.88078C-67.6557 305.731 -77.3081 275.632 -78.7381 262.732C-81.0619 241.233 -67.6556 213.358 -49.0657 200.755C66.7641 122.023 185.633 43.1428 300.747 -33.0686C340.072 -59.016 379.218 -85.1117 418.543 -111.207C436.597 -123.217 453.578 -129 470.381 -129C484.502 -129 498.087 -124.848 511.136 -116.693C556.002 -88.3737 532.943 -50.268 525.436 -37.665C485.932 28.1674 446.071 95.186 407.282 160.129L392.446 185.187C389.713 189.927 393.181 195.894 398.653 195.92L417.828 196.01C436.418 196.01 454.829 196.01 472.883 196.159C504.522 196.159 530.262 196.01 553.857 195.714H557.253C615.347 195.714 629.825 219.141 631.792 238.861C633.937 260.36 619.279 289.125 599.259 302.766C488.256 378.384 374.035 454.002 263.746 527.1C222.455 554.53 179.913 582.701 137.906 610.725C123.785 619.473 105.016 630 82.494 630Z" fill="#FFE9ED"/>
<mask id="mask0_51_3513" style="mask-type:alpha" maskUnits="userSpaceOnUse" x="125" y="110" width="251" height="211">
<path d="M155.707 320.575H344.851C355.6 320.575 360.974 320.575 365.079 318.484C368.69 316.644 371.626 313.708 373.466 310.097C375.558 305.991 375.558 300.617 375.558 289.869V160.431C375.558 149.683 375.558 144.309 373.466 140.204C371.626 136.592 368.69 133.657 365.079 131.817C360.974 129.725 355.6 129.725 344.851 129.725H241.083C235.352 129.725 228.022 129.192 220.825 123.727C213.628 118.263 219.759 122.928 212.162 117.064C204.566 111.199 200.692 110 194.037 110H155.707C144.958 110 139.584 110 135.479 112.092C131.868 113.932 128.932 116.868 127.092 120.479C125 124.584 125 129.958 125 140.707V289.869C125 300.617 125 305.991 127.092 310.097C128.932 313.708 131.868 316.644 135.479 318.484C139.584 320.575 144.958 320.575 155.707 320.575Z" fill="url(#paint0_linear_51_3513)"/>
<path d="M344.851 319.776H155.707C150.319 319.776 146.327 319.775 143.167 319.517C140.016 319.26 137.763 318.75 135.842 317.771C132.381 316.008 129.568 313.194 127.804 309.734C126.825 307.812 126.316 305.559 126.058 302.409C125.8 299.249 125.8 295.256 125.8 289.869V140.707C125.8 135.319 125.8 131.327 126.058 128.167C126.316 125.016 126.825 122.763 127.804 120.842C129.568 117.381 132.381 114.568 135.842 112.804C137.763 111.825 140.016 111.316 143.167 111.058C146.327 110.8 150.319 110.8 155.707 110.8H194.037C197.312 110.8 199.839 111.095 202.465 112.081C205.106 113.073 207.9 114.784 211.674 117.697C215.514 120.661 215.836 120.927 216.163 121.185C216.481 121.435 216.804 121.678 220.342 124.364C227.749 129.988 235.295 130.524 241.083 130.524H344.851C350.239 130.524 354.231 130.525 357.391 130.783C360.542 131.041 362.795 131.55 364.716 132.529C368.177 134.292 370.991 137.106 372.754 140.567C373.733 142.488 374.242 144.741 374.5 147.892C374.758 151.052 374.758 155.044 374.758 160.431V289.869C374.758 295.256 374.758 299.249 374.5 302.409C374.242 305.559 373.733 307.812 372.754 309.734C370.991 313.194 368.177 316.008 364.716 317.771C362.795 318.75 360.542 319.26 357.391 319.517C354.231 319.775 350.239 319.776 344.851 319.776Z" stroke="url(#paint1_linear_51_3513)" stroke-opacity="0.07" stroke-width="1.59931"/>
</mask>
<g mask="url(#mask0_51_3513)">
<path d="M155.669 266.66H344.58C355.315 266.66 360.683 266.66 364.783 265.104C368.39 263.735 371.322 261.551 373.16 258.864C375.249 255.81 375.249 251.812 375.249 243.815V147.519C375.249 139.523 375.249 135.525 373.16 132.47C371.322 129.784 368.39 127.6 364.783 126.231C360.683 124.674 355.315 124.674 344.58 124.674H240.94C235.216 124.674 227.895 124.278 220.707 120.213C213.519 116.147 219.642 119.618 212.055 115.255C204.467 110.892 200.598 110 193.952 110H155.669C144.934 110 139.566 110 135.466 111.556C131.859 112.925 128.927 115.109 127.089 117.796C125 120.85 125 124.848 125 132.845V243.815C125 251.812 125 255.81 127.089 258.864C128.927 261.551 131.859 263.735 135.466 265.104C139.566 266.66 144.934 266.66 155.669 266.66Z" fill="#5280FF"/>
<path d="M142.444 170.76V158.923H150.143V160.72H144.588V163.934H149.744V165.731H144.588V168.962H150.189V170.76H142.444ZM154.33 165.558V170.76H152.238V161.882H154.238V163.391H154.342C154.546 162.893 154.872 162.499 155.319 162.206C155.77 161.913 156.326 161.766 156.989 161.766C157.602 161.766 158.136 161.897 158.59 162.159C159.049 162.421 159.403 162.801 159.654 163.298C159.908 163.795 160.033 164.398 160.029 165.107V170.76H157.937V165.431C157.937 164.837 157.783 164.373 157.475 164.038C157.17 163.703 156.748 163.535 156.209 163.535C155.843 163.535 155.517 163.616 155.232 163.778C154.951 163.936 154.729 164.165 154.567 164.466C154.409 164.766 154.33 165.13 154.33 165.558ZM166.017 174.274C165.266 174.274 164.621 174.172 164.081 173.968C163.542 173.768 163.108 173.498 162.781 173.159C162.453 172.82 162.226 172.444 162.099 172.032L163.983 171.575C164.068 171.748 164.191 171.92 164.353 172.089C164.515 172.263 164.732 172.405 165.006 172.517C165.283 172.633 165.632 172.691 166.052 172.691C166.646 172.691 167.137 172.546 167.526 172.257C167.915 171.972 168.11 171.502 168.11 170.847V169.165H168.006C167.898 169.381 167.74 169.602 167.532 169.829C167.328 170.057 167.056 170.248 166.717 170.402C166.382 170.556 165.96 170.633 165.451 170.633C164.769 170.633 164.151 170.473 163.596 170.153C163.045 169.829 162.605 169.348 162.278 168.708C161.954 168.065 161.792 167.259 161.792 166.292C161.792 165.317 161.954 164.495 162.278 163.824C162.605 163.15 163.047 162.639 163.601 162.292C164.156 161.942 164.775 161.766 165.457 161.766C165.977 161.766 166.405 161.855 166.74 162.032C167.079 162.206 167.349 162.416 167.549 162.662C167.75 162.905 167.902 163.134 168.006 163.35H168.121V161.882H170.185V170.905C170.185 171.664 170.004 172.292 169.642 172.789C169.279 173.286 168.784 173.658 168.156 173.904C167.528 174.151 166.815 174.274 166.017 174.274ZM166.035 168.991C166.478 168.991 166.856 168.883 167.168 168.668C167.48 168.452 167.717 168.142 167.879 167.737C168.04 167.332 168.121 166.847 168.121 166.281C168.121 165.722 168.04 165.232 167.879 164.812C167.721 164.392 167.486 164.067 167.173 163.836C166.865 163.601 166.486 163.483 166.035 163.483C165.569 163.483 165.179 163.604 164.867 163.847C164.555 164.09 164.32 164.423 164.162 164.847C164.004 165.267 163.925 165.745 163.925 166.281C163.925 166.824 164.004 167.3 164.162 167.708C164.324 168.113 164.561 168.429 164.873 168.656C165.189 168.88 165.576 168.991 166.035 168.991ZM174.422 158.923V170.76H172.329V158.923H174.422ZM176.573 170.76V161.882H178.665V170.76H176.573ZM177.625 160.622C177.294 160.622 177.009 160.512 176.77 160.293C176.531 160.069 176.411 159.801 176.411 159.489C176.411 159.173 176.531 158.905 176.77 158.686C177.009 158.462 177.294 158.35 177.625 158.35C177.96 158.35 178.245 158.462 178.481 158.686C178.719 158.905 178.839 159.173 178.839 159.489C178.839 159.801 178.719 160.069 178.481 160.293C178.245 160.512 177.96 160.622 177.625 160.622ZM187.834 164.229L185.927 164.437C185.873 164.244 185.778 164.063 185.643 163.893C185.512 163.724 185.335 163.587 185.112 163.483C184.888 163.379 184.614 163.327 184.291 163.327C183.855 163.327 183.489 163.421 183.193 163.61C182.9 163.799 182.755 164.044 182.759 164.344C182.755 164.602 182.85 164.812 183.042 164.974C183.239 165.136 183.563 165.269 184.013 165.373L185.528 165.697C186.368 165.878 186.992 166.165 187.4 166.558C187.813 166.951 188.021 167.465 188.025 168.101C188.021 168.66 187.857 169.153 187.533 169.581C187.214 170.005 186.768 170.336 186.198 170.575C185.628 170.814 184.973 170.933 184.233 170.933C183.146 170.933 182.272 170.706 181.609 170.251C180.946 169.793 180.551 169.155 180.424 168.338L182.464 168.142C182.557 168.542 182.753 168.845 183.054 169.049C183.354 169.253 183.746 169.355 184.227 169.355C184.724 169.355 185.123 169.253 185.424 169.049C185.728 168.845 185.88 168.593 185.88 168.292C185.88 168.038 185.782 167.828 185.586 167.662C185.393 167.496 185.092 167.369 184.684 167.28L183.17 166.963C182.318 166.785 181.688 166.487 181.279 166.067C180.871 165.643 180.669 165.107 180.673 164.46C180.669 163.913 180.817 163.439 181.118 163.038C181.422 162.633 181.844 162.321 182.383 162.102C182.927 161.878 183.553 161.766 184.262 161.766C185.302 161.766 186.121 161.988 186.718 162.431C187.32 162.874 187.691 163.473 187.834 164.229ZM191.842 165.558V170.76H189.75V158.923H191.796V163.391H191.9C192.108 162.89 192.43 162.495 192.865 162.206C193.305 161.913 193.863 161.766 194.542 161.766C195.158 161.766 195.696 161.895 196.154 162.154C196.613 162.412 196.967 162.789 197.218 163.287C197.472 163.784 197.599 164.39 197.599 165.107V170.76H195.507V165.431C195.507 164.834 195.353 164.369 195.044 164.038C194.74 163.703 194.312 163.535 193.761 163.535C193.391 163.535 193.06 163.616 192.767 163.778C192.478 163.936 192.251 164.165 192.085 164.466C191.923 164.766 191.842 165.13 191.842 165.558ZM209.15 163.98V165.703H203.821V163.98H209.15ZM217.065 158.923L220.145 168.24H220.267L223.342 158.923H225.7L221.527 170.76H218.88L214.712 158.923H217.065ZM230.085 170.933C229.218 170.933 228.467 170.743 227.831 170.361C227.195 169.98 226.702 169.446 226.352 168.76C226.005 168.074 225.831 167.273 225.831 166.356C225.831 165.439 226.005 164.635 226.352 163.945C226.702 163.256 227.195 162.72 227.831 162.339C228.467 161.957 229.218 161.766 230.085 161.766C230.952 161.766 231.704 161.957 232.34 162.339C232.975 162.72 233.467 163.256 233.814 163.945C234.164 164.635 234.339 165.439 234.339 166.356C234.339 167.273 234.164 168.074 233.814 168.76C233.467 169.446 232.975 169.98 232.34 170.361C231.704 170.743 230.952 170.933 230.085 170.933ZM230.097 169.257C230.567 169.257 230.96 169.128 231.276 168.87C231.592 168.608 231.827 168.257 231.981 167.818C232.139 167.379 232.218 166.889 232.218 166.35C232.218 165.807 232.139 165.315 231.981 164.876C231.827 164.433 231.592 164.08 231.276 163.818C230.96 163.556 230.567 163.425 230.097 163.425C229.615 163.425 229.215 163.556 228.895 163.818C228.579 164.08 228.342 164.433 228.184 164.876C228.03 165.315 227.953 165.807 227.953 166.35C227.953 166.889 228.03 167.379 228.184 167.818C228.342 168.257 228.579 168.608 228.895 168.87C229.215 169.128 229.615 169.257 230.097 169.257ZM239.988 170.933C239.102 170.933 238.341 170.739 237.705 170.35C237.073 169.96 236.585 169.423 236.243 168.737C235.903 168.047 235.734 167.254 235.734 166.356C235.734 165.454 235.907 164.658 236.254 163.969C236.601 163.275 237.09 162.736 237.722 162.35C238.358 161.961 239.109 161.766 239.976 161.766C240.697 161.766 241.335 161.899 241.89 162.165C242.448 162.427 242.893 162.799 243.225 163.281C243.556 163.759 243.745 164.317 243.791 164.957H241.791C241.71 164.529 241.518 164.173 241.213 163.888C240.913 163.599 240.51 163.454 240.005 163.454C239.578 163.454 239.202 163.57 238.878 163.801C238.555 164.028 238.302 164.356 238.121 164.784C237.944 165.211 237.855 165.724 237.855 166.321C237.855 166.926 237.944 167.446 238.121 167.882C238.298 168.313 238.547 168.646 238.867 168.882C239.19 169.113 239.57 169.228 240.005 169.228C240.314 169.228 240.589 169.171 240.832 169.055C241.078 168.935 241.285 168.764 241.45 168.541C241.616 168.317 241.73 168.045 241.791 167.726H243.791C243.741 168.354 243.556 168.91 243.236 169.396C242.916 169.878 242.481 170.255 241.93 170.529C241.379 170.799 240.732 170.933 239.988 170.933ZM248.064 170.939C247.501 170.939 246.995 170.839 246.544 170.639C246.097 170.434 245.742 170.134 245.48 169.737C245.222 169.34 245.093 168.851 245.093 168.269C245.093 167.768 245.186 167.354 245.371 167.026C245.555 166.699 245.808 166.437 246.128 166.24C246.448 166.044 246.808 165.895 247.209 165.795C247.613 165.691 248.031 165.616 248.463 165.57C248.983 165.516 249.405 165.467 249.729 165.425C250.052 165.379 250.287 165.31 250.434 165.217C250.584 165.121 250.659 164.972 250.659 164.772V164.737C250.659 164.302 250.53 163.965 250.272 163.726C250.014 163.487 249.642 163.367 249.156 163.367C248.644 163.367 248.237 163.479 247.937 163.703C247.64 163.926 247.44 164.19 247.336 164.495L245.382 164.217C245.536 163.678 245.791 163.227 246.145 162.865C246.5 162.499 246.933 162.225 247.446 162.044C247.958 161.859 248.524 161.766 249.145 161.766C249.573 161.766 249.998 161.816 250.422 161.917C250.846 162.017 251.233 162.183 251.584 162.414C251.935 162.641 252.216 162.951 252.428 163.344C252.644 163.737 252.752 164.229 252.752 164.818V170.76H250.74V169.54H250.671C250.544 169.787 250.364 170.018 250.133 170.234C249.906 170.446 249.619 170.617 249.272 170.748C248.929 170.876 248.526 170.939 248.064 170.939ZM248.607 169.402C249.027 169.402 249.391 169.319 249.7 169.153C250.008 168.984 250.245 168.76 250.411 168.483C250.58 168.205 250.665 167.903 250.665 167.575V166.529C250.599 166.583 250.488 166.633 250.33 166.679C250.176 166.726 250.002 166.766 249.81 166.801C249.617 166.835 249.426 166.866 249.237 166.893C249.049 166.92 248.885 166.943 248.746 166.963C248.434 167.005 248.155 167.074 247.908 167.171C247.661 167.267 247.467 167.402 247.324 167.575C247.182 167.745 247.11 167.964 247.11 168.234C247.11 168.619 247.251 168.91 247.532 169.107C247.814 169.303 248.172 169.402 248.607 169.402ZM254.948 170.76V158.923H257.04V163.35H257.127C257.235 163.134 257.387 162.905 257.584 162.662C257.78 162.416 258.046 162.206 258.381 162.032C258.716 161.855 259.144 161.766 259.664 161.766C260.35 161.766 260.969 161.942 261.52 162.292C262.075 162.639 262.514 163.154 262.838 163.836C263.165 164.514 263.329 165.346 263.329 166.333C263.329 167.307 263.169 168.136 262.849 168.818C262.529 169.5 262.094 170.02 261.543 170.379C260.992 170.737 260.368 170.916 259.67 170.916C259.162 170.916 258.74 170.831 258.404 170.662C258.069 170.492 257.799 170.288 257.595 170.049C257.395 169.806 257.239 169.577 257.127 169.361H257.006V170.76H254.948ZM257 166.321C257 166.895 257.081 167.398 257.243 167.83C257.408 168.261 257.645 168.598 257.954 168.841C258.266 169.08 258.643 169.199 259.086 169.199C259.549 169.199 259.936 169.076 260.248 168.83C260.56 168.579 260.795 168.238 260.953 167.806C261.115 167.371 261.196 166.876 261.196 166.321C261.196 165.77 261.117 165.281 260.959 164.853C260.801 164.425 260.566 164.09 260.254 163.847C259.942 163.604 259.553 163.483 259.086 163.483C258.639 163.483 258.26 163.601 257.948 163.836C257.636 164.071 257.399 164.4 257.237 164.824C257.079 165.248 257 165.747 257 166.321ZM270.766 167.026V161.882H272.859V170.76H270.83V169.182H270.737C270.537 169.679 270.208 170.086 269.749 170.402C269.294 170.718 268.734 170.876 268.067 170.876C267.485 170.876 266.971 170.747 266.524 170.488C266.081 170.226 265.734 169.847 265.483 169.35C265.233 168.849 265.108 168.244 265.108 167.535V161.882H267.2V167.211C267.2 167.774 267.354 168.221 267.662 168.552C267.971 168.883 268.375 169.049 268.876 169.049C269.184 169.049 269.483 168.974 269.772 168.824C270.061 168.673 270.298 168.45 270.483 168.153C270.672 167.853 270.766 167.477 270.766 167.026ZM277.103 158.923V170.76H275.01V158.923H277.103ZM281.809 170.939C281.246 170.939 280.74 170.839 280.289 170.639C279.842 170.434 279.487 170.134 279.225 169.737C278.967 169.34 278.838 168.851 278.838 168.269C278.838 167.768 278.93 167.354 279.115 167.026C279.3 166.699 279.553 166.437 279.873 166.24C280.192 166.044 280.553 165.895 280.953 165.795C281.358 165.691 281.776 165.616 282.208 165.57C282.728 165.516 283.15 165.467 283.473 165.425C283.797 165.379 284.032 165.31 284.179 165.217C284.329 165.121 284.404 164.972 284.404 164.772V164.737C284.404 164.302 284.275 163.965 284.017 163.726C283.759 163.487 283.387 163.367 282.901 163.367C282.389 163.367 281.982 163.479 281.682 163.703C281.385 163.926 281.185 164.19 281.081 164.495L279.127 164.217C279.281 163.678 279.535 163.227 279.89 162.865C280.244 162.499 280.678 162.225 281.19 162.044C281.703 161.859 282.269 161.766 282.89 161.766C283.317 161.766 283.743 161.816 284.167 161.917C284.591 162.017 284.978 162.183 285.329 162.414C285.679 162.641 285.961 162.951 286.173 163.344C286.388 163.737 286.496 164.229 286.496 164.818V170.76H284.485V169.54H284.416C284.288 169.787 284.109 170.018 283.878 170.234C283.651 170.446 283.364 170.617 283.017 170.748C282.674 170.876 282.271 170.939 281.809 170.939ZM282.352 169.402C282.772 169.402 283.136 169.319 283.445 169.153C283.753 168.984 283.99 168.76 284.155 168.483C284.325 168.205 284.41 167.903 284.41 167.575V166.529C284.344 166.583 284.233 166.633 284.075 166.679C283.92 166.726 283.747 166.766 283.554 166.801C283.362 166.835 283.171 166.866 282.982 166.893C282.793 166.92 282.63 166.943 282.491 166.963C282.179 167.005 281.899 167.074 281.653 167.171C281.406 167.267 281.212 167.402 281.069 167.575C280.926 167.745 280.855 167.964 280.855 168.234C280.855 168.619 280.996 168.91 281.277 169.107C281.558 169.303 281.917 169.402 282.352 169.402ZM288.6 170.76V161.882H290.629V163.362H290.722C290.883 162.849 291.161 162.454 291.554 162.177C291.951 161.895 292.404 161.755 292.912 161.755C293.028 161.755 293.157 161.761 293.299 161.772C293.446 161.78 293.567 161.793 293.664 161.813V163.737C293.575 163.707 293.434 163.68 293.242 163.656C293.053 163.629 292.87 163.616 292.693 163.616C292.311 163.616 291.968 163.699 291.664 163.865C291.363 164.026 291.126 164.252 290.953 164.541C290.779 164.83 290.693 165.163 290.693 165.541V170.76H288.6ZM296.624 174.089C296.339 174.089 296.075 174.066 295.832 174.02C295.594 173.978 295.403 173.927 295.26 173.87L295.746 172.24C296.05 172.328 296.322 172.371 296.561 172.367C296.8 172.363 297.01 172.288 297.191 172.141C297.376 171.999 297.532 171.76 297.659 171.425L297.838 170.945L294.619 161.882H296.838L298.884 168.587H298.977L301.029 161.882H303.254L299.699 171.835C299.534 172.305 299.314 172.708 299.04 173.043C298.767 173.382 298.432 173.64 298.035 173.818C297.642 173.999 297.171 174.089 296.624 174.089Z" fill="white"/>
<rect x="141.734" y="225.969" width="71.2764" height="24.4145" rx="12.2073" fill="#F8FAFC"/>
<path d="M150.704 242.676V241.451L153.955 238.264C154.266 237.95 154.525 237.671 154.732 237.427C154.94 237.183 155.095 236.947 155.199 236.718C155.303 236.49 155.354 236.246 155.354 235.987C155.354 235.691 155.287 235.438 155.153 235.228C155.019 235.014 154.835 234.85 154.6 234.734C154.365 234.618 154.098 234.56 153.8 234.56C153.492 234.56 153.222 234.624 152.99 234.752C152.759 234.877 152.579 235.056 152.451 235.287C152.326 235.519 152.263 235.795 152.263 236.115H150.649C150.649 235.52 150.785 235.004 151.056 234.565C151.327 234.126 151.701 233.786 152.176 233.545C152.655 233.304 153.204 233.184 153.823 233.184C154.451 233.184 155.002 233.301 155.478 233.536C155.953 233.771 156.322 234.092 156.584 234.501C156.85 234.909 156.982 235.376 156.982 235.9C156.982 236.25 156.915 236.595 156.781 236.933C156.647 237.272 156.411 237.647 156.072 238.058C155.737 238.47 155.266 238.968 154.659 239.553L153.045 241.195V241.259H157.124V242.676H150.704ZM158.331 240.939V239.59L162.305 233.312H163.429V235.232H162.744L160.069 239.471V239.544H165.615V240.939H158.331ZM162.798 242.676V240.527L162.817 239.924V233.312H164.417V242.676H162.798ZM173.352 242.814C172.651 242.814 172.049 242.66 171.546 242.352C171.046 242.044 170.66 241.619 170.389 241.076C170.12 240.53 169.986 239.902 169.986 239.192C169.986 238.479 170.124 237.849 170.398 237.304C170.672 236.755 171.059 236.328 171.559 236.023C172.062 235.715 172.657 235.562 173.343 235.562C173.913 235.562 174.417 235.667 174.856 235.877C175.298 236.084 175.65 236.378 175.912 236.76C176.174 237.138 176.324 237.58 176.36 238.086H174.778C174.714 237.747 174.562 237.465 174.321 237.24C174.083 237.011 173.765 236.897 173.365 236.897C173.027 236.897 172.73 236.988 172.474 237.171C172.218 237.351 172.018 237.61 171.875 237.948C171.735 238.287 171.664 238.692 171.664 239.165C171.664 239.643 171.735 240.055 171.875 240.399C172.015 240.741 172.212 241.004 172.465 241.19C172.721 241.373 173.021 241.465 173.365 241.465C173.609 241.465 173.827 241.419 174.019 241.327C174.214 241.233 174.377 241.097 174.509 240.921C174.64 240.744 174.73 240.529 174.778 240.276H176.36C176.321 240.773 176.174 241.213 175.921 241.597C175.668 241.978 175.324 242.277 174.888 242.493C174.452 242.707 173.94 242.814 173.352 242.814ZM179.741 242.818C179.296 242.818 178.895 242.739 178.538 242.58C178.184 242.419 177.904 242.181 177.697 241.867C177.492 241.553 177.39 241.166 177.39 240.706C177.39 240.309 177.464 239.982 177.61 239.723C177.756 239.463 177.956 239.256 178.209 239.101C178.462 238.945 178.747 238.828 179.064 238.749C179.384 238.666 179.715 238.607 180.056 238.57C180.468 238.528 180.801 238.489 181.058 238.456C181.314 238.419 181.5 238.364 181.615 238.291C181.734 238.215 181.794 238.098 181.794 237.939V237.912C181.794 237.567 181.692 237.301 181.487 237.112C181.283 236.923 180.989 236.828 180.605 236.828C180.199 236.828 179.878 236.917 179.64 237.093C179.405 237.27 179.247 237.479 179.165 237.72L177.619 237.5C177.741 237.074 177.942 236.717 178.223 236.43C178.503 236.141 178.846 235.924 179.251 235.781C179.657 235.635 180.105 235.562 180.596 235.562C180.934 235.562 181.271 235.601 181.606 235.68C181.942 235.76 182.248 235.891 182.525 236.074C182.803 236.254 183.025 236.499 183.193 236.81C183.364 237.121 183.449 237.509 183.449 237.976V242.676H181.858V241.712H181.803C181.702 241.907 181.56 242.09 181.378 242.26C181.198 242.428 180.971 242.564 180.696 242.667C180.425 242.768 180.106 242.818 179.741 242.818ZM180.17 241.602C180.503 241.602 180.791 241.536 181.035 241.405C181.279 241.271 181.466 241.094 181.597 240.875C181.731 240.655 181.798 240.416 181.798 240.157V239.329C181.746 239.372 181.658 239.412 181.533 239.448C181.411 239.485 181.274 239.517 181.122 239.544C180.969 239.572 180.818 239.596 180.669 239.617C180.519 239.639 180.39 239.657 180.28 239.672C180.033 239.706 179.812 239.761 179.617 239.837C179.422 239.913 179.268 240.02 179.155 240.157C179.043 240.291 178.986 240.465 178.986 240.678C178.986 240.983 179.097 241.213 179.32 241.369C179.542 241.524 179.826 241.602 180.17 241.602ZM185.113 242.676V235.653H186.718V236.824H186.791C186.919 236.418 187.139 236.106 187.45 235.886C187.764 235.664 188.122 235.552 188.524 235.552C188.616 235.552 188.718 235.557 188.831 235.566C188.947 235.572 189.043 235.583 189.119 235.598V237.121C189.049 237.096 188.937 237.075 188.785 237.057C188.636 237.035 188.491 237.025 188.351 237.025C188.049 237.025 187.778 237.09 187.537 237.221C187.299 237.349 187.112 237.528 186.974 237.756C186.837 237.985 186.769 238.249 186.769 238.547V242.676H185.113ZM192.536 242.8C191.984 242.8 191.49 242.658 191.054 242.375C190.618 242.091 190.274 241.68 190.021 241.14C189.768 240.6 189.641 239.945 189.641 239.174C189.641 238.393 189.769 237.735 190.025 237.199C190.284 236.659 190.633 236.252 191.072 235.978C191.511 235.7 192.001 235.562 192.54 235.562C192.952 235.562 193.29 235.632 193.555 235.772C193.821 235.909 194.031 236.075 194.186 236.27C194.342 236.462 194.462 236.644 194.548 236.814H194.616V233.312H196.276V242.676H194.648V241.57H194.548C194.462 241.741 194.339 241.922 194.177 242.114C194.016 242.303 193.802 242.464 193.537 242.599C193.272 242.733 192.938 242.8 192.536 242.8ZM192.997 241.442C193.348 241.442 193.647 241.347 193.894 241.158C194.141 240.966 194.328 240.7 194.456 240.358C194.584 240.017 194.648 239.619 194.648 239.165C194.648 238.71 194.584 238.316 194.456 237.98C194.331 237.645 194.145 237.384 193.898 237.199C193.654 237.013 193.354 236.92 192.997 236.92C192.629 236.92 192.321 237.016 192.074 237.208C191.827 237.4 191.641 237.665 191.516 238.003C191.391 238.342 191.329 238.729 191.329 239.165C191.329 239.604 191.391 239.995 191.516 240.34C191.644 240.681 191.831 240.951 192.078 241.149C192.328 241.344 192.635 241.442 192.997 241.442ZM203.591 237.509L202.082 237.674C202.039 237.522 201.965 237.378 201.858 237.244C201.754 237.11 201.614 237.002 201.437 236.92C201.26 236.837 201.044 236.796 200.788 236.796C200.443 236.796 200.154 236.871 199.919 237.02C199.687 237.17 199.573 237.363 199.576 237.601C199.573 237.805 199.648 237.971 199.8 238.099C199.956 238.227 200.212 238.332 200.568 238.415L201.766 238.671C202.431 238.814 202.925 239.041 203.248 239.352C203.574 239.663 203.739 240.07 203.742 240.573C203.739 241.015 203.609 241.405 203.353 241.744C203.1 242.079 202.748 242.341 202.297 242.53C201.846 242.719 201.327 242.814 200.742 242.814C199.883 242.814 199.191 242.634 198.666 242.274C198.142 241.911 197.829 241.407 197.729 240.76L199.343 240.605C199.416 240.922 199.572 241.161 199.809 241.323C200.047 241.484 200.357 241.565 200.738 241.565C201.131 241.565 201.446 241.484 201.684 241.323C201.925 241.161 202.045 240.962 202.045 240.724C202.045 240.523 201.968 240.357 201.812 240.225C201.66 240.094 201.422 239.994 201.099 239.924L199.901 239.672C199.227 239.532 198.729 239.296 198.406 238.963C198.082 238.628 197.922 238.204 197.925 237.692C197.922 237.259 198.04 236.885 198.278 236.567C198.518 236.247 198.852 236.001 199.279 235.827C199.709 235.65 200.204 235.562 200.765 235.562C201.588 235.562 202.236 235.737 202.708 236.087C203.184 236.438 203.478 236.912 203.591 237.509Z" fill="#667085"/>
<rect x="217.079" y="225.969" width="66.2764" height="24.4145" rx="12.2073" fill="#F8FAFC"/>
<path d="M225.88 240.939V239.59L229.854 233.312H230.979V235.232H230.293L227.618 239.471V239.544H233.164V240.939H225.88ZM230.348 242.676V240.527L230.366 239.924V233.312H231.966V242.676H230.348ZM240.444 242.8C239.892 242.8 239.398 242.658 238.962 242.375C238.526 242.091 238.182 241.68 237.929 241.14C237.676 240.6 237.549 239.945 237.549 239.174C237.549 238.393 237.677 237.735 237.934 237.199C238.193 236.659 238.542 236.252 238.981 235.978C239.42 235.7 239.909 235.562 240.448 235.562C240.86 235.562 241.198 235.632 241.463 235.772C241.729 235.909 241.939 236.075 242.094 236.27C242.25 236.462 242.37 236.644 242.456 236.814H242.524V233.312H244.184V242.676H242.556V241.57H242.456C242.37 241.741 242.247 241.922 242.085 242.114C241.924 242.303 241.71 242.464 241.445 242.599C241.18 242.733 240.846 242.8 240.444 242.8ZM240.906 241.442C241.256 241.442 241.555 241.347 241.802 241.158C242.049 240.966 242.236 240.7 242.364 240.358C242.492 240.017 242.556 239.619 242.556 239.165C242.556 238.71 242.492 238.316 242.364 237.98C242.239 237.645 242.053 237.384 241.806 237.199C241.563 237.013 241.262 236.92 240.906 236.92C240.537 236.92 240.229 237.016 239.982 237.208C239.735 237.4 239.549 237.665 239.424 238.003C239.299 238.342 239.237 238.729 239.237 239.165C239.237 239.604 239.299 239.995 239.424 240.34C239.552 240.681 239.74 240.951 239.987 241.149C240.237 241.344 240.543 241.442 240.906 241.442ZM249.057 242.814C248.353 242.814 247.745 242.667 247.233 242.375C246.724 242.079 246.332 241.661 246.058 241.122C245.783 240.579 245.646 239.94 245.646 239.206C245.646 238.483 245.783 237.849 246.058 237.304C246.335 236.755 246.722 236.328 247.219 236.023C247.716 235.715 248.3 235.562 248.97 235.562C249.403 235.562 249.812 235.632 250.196 235.772C250.583 235.909 250.924 236.122 251.22 236.412C251.519 236.702 251.754 237.07 251.924 237.519C252.095 237.964 252.18 238.494 252.18 239.11V239.617H246.423V238.502H250.594C250.591 238.185 250.522 237.903 250.388 237.656C250.254 237.406 250.066 237.209 249.825 237.066C249.588 236.923 249.31 236.851 248.993 236.851C248.655 236.851 248.358 236.933 248.102 237.098C247.846 237.259 247.646 237.473 247.503 237.738C247.362 238 247.291 238.288 247.288 238.602V239.576C247.288 239.985 247.362 240.335 247.512 240.628C247.661 240.917 247.87 241.14 248.138 241.295C248.406 241.448 248.72 241.524 249.08 241.524C249.321 241.524 249.539 241.491 249.734 241.423C249.929 241.353 250.098 241.251 250.242 241.117C250.385 240.983 250.493 240.817 250.566 240.619L252.112 240.792C252.014 241.201 251.828 241.558 251.554 241.862C251.283 242.164 250.935 242.399 250.511 242.567C250.088 242.731 249.603 242.814 249.057 242.814ZM256.644 242.814C255.943 242.814 255.341 242.66 254.838 242.352C254.338 242.044 253.952 241.619 253.681 241.076C253.413 240.53 253.279 239.902 253.279 239.192C253.279 238.479 253.416 237.849 253.69 237.304C253.965 236.755 254.352 236.328 254.852 236.023C255.355 235.715 255.949 235.562 256.635 235.562C257.205 235.562 257.71 235.667 258.149 235.877C258.591 236.084 258.943 236.378 259.205 236.76C259.467 237.138 259.616 237.58 259.653 238.086H258.071C258.007 237.747 257.854 237.465 257.614 237.24C257.376 237.011 257.057 236.897 256.658 236.897C256.32 236.897 256.022 236.988 255.766 237.171C255.51 237.351 255.311 237.61 255.167 237.948C255.027 238.287 254.957 238.692 254.957 239.165C254.957 239.643 255.027 240.055 255.167 240.399C255.307 240.741 255.504 241.004 255.757 241.19C256.013 241.373 256.313 241.465 256.658 241.465C256.902 241.465 257.12 241.419 257.312 241.327C257.507 241.233 257.67 241.097 257.801 240.921C257.932 240.744 258.022 240.529 258.071 240.276H259.653C259.613 240.773 259.467 241.213 259.214 241.597C258.961 241.978 258.616 242.277 258.181 242.493C257.745 242.707 257.233 242.814 256.644 242.814ZM262.521 240.472L262.516 238.474H262.782L265.306 235.653H267.24L264.135 239.11H263.792L262.521 240.472ZM261.012 242.676V233.312H262.667V242.676H261.012ZM265.42 242.676L263.134 239.48L264.249 238.314L267.4 242.676H265.42ZM273.894 237.509L272.385 237.674C272.342 237.522 272.268 237.378 272.161 237.244C272.057 237.11 271.917 237.002 271.74 236.92C271.563 236.837 271.347 236.796 271.091 236.796C270.747 236.796 270.457 236.871 270.222 237.02C269.991 237.17 269.876 237.363 269.879 237.601C269.876 237.805 269.951 237.971 270.103 238.099C270.259 238.227 270.515 238.332 270.872 238.415L272.07 238.671C272.734 238.814 273.228 239.041 273.551 239.352C273.877 239.663 274.042 240.07 274.045 240.573C274.042 241.015 273.912 241.405 273.656 241.744C273.403 242.079 273.051 242.341 272.6 242.53C272.149 242.719 271.631 242.814 271.045 242.814C270.186 242.814 269.494 242.634 268.969 242.274C268.445 241.911 268.133 241.407 268.032 240.76L269.646 240.605C269.719 240.922 269.875 241.161 270.112 241.323C270.35 241.484 270.66 241.565 271.041 241.565C271.434 241.565 271.749 241.484 271.987 241.323C272.228 241.161 272.348 240.962 272.348 240.724C272.348 240.523 272.271 240.357 272.115 240.225C271.963 240.094 271.725 239.994 271.402 239.924L270.204 239.672C269.53 239.532 269.032 239.296 268.709 238.963C268.386 238.628 268.226 238.204 268.229 237.692C268.226 237.259 268.343 236.885 268.581 236.567C268.822 236.247 269.155 236.001 269.582 235.827C270.012 235.65 270.507 235.562 271.068 235.562C271.891 235.562 272.539 235.737 273.011 236.087C273.487 236.438 273.781 236.912 273.894 237.509Z" fill="#667085"/>
<path d="M349.257 234.785C350.19 234.785 350.953 234.022 350.953 233.09C350.953 232.157 350.19 231.395 349.257 231.395C348.325 231.395 347.562 232.157 347.562 233.09C347.562 234.022 348.325 234.785 349.257 234.785ZM349.257 236.481C348.325 236.481 347.562 237.244 347.562 238.176C347.562 239.109 348.325 239.872 349.257 239.872C350.19 239.872 350.953 239.109 350.953 238.176C350.953 237.244 350.19 236.481 349.257 236.481ZM349.257 241.567C348.325 241.567 347.562 242.33 347.562 243.263C347.562 244.195 348.325 244.958 349.257 244.958C350.19 244.958 350.953 244.195 350.953 243.263C350.953 242.33 350.19 241.567 349.257 241.567Z" fill="white"/>
</g>
<g filter="url(#filter0_dd_51_3513)">
<path d="M290.171 167.913C290.171 162.068 294.909 157.33 300.754 157.33H497.417C503.262 157.33 508 162.068 508 167.913V206.716H290.171V167.913Z" fill="white"/>
<g clip-path="url(#clip1_51_3513)">
<rect x="297.226" y="164.385" width="203.719" height="35.2759" rx="10.5828" fill="#DBE8FF"/>
<path d="M315.592 176.577C315.313 176.298 314.938 176.144 314.548 176.144H310.749C309.94 176.144 309.286 176.805 309.286 177.614L309.279 186.433C309.279 187.241 309.94 187.902 310.749 187.902H322.507C323.316 187.902 323.977 187.241 323.977 186.433V179.083C323.977 178.275 323.316 177.614 322.507 177.614H316.628L315.592 176.577Z" fill="#5280FF"/>
<path d="M333.261 185.523V177.827H338.267V178.995H334.656V181.085H338.008V182.254H334.656V184.354H338.297V185.523H333.261ZM340.99 182.141V185.523H339.629V179.751H340.93V180.732H340.997C341.13 180.408 341.342 180.152 341.632 179.961C341.926 179.771 342.288 179.676 342.719 179.676C343.117 179.676 343.464 179.761 343.76 179.931C344.058 180.101 344.288 180.348 344.451 180.671C344.616 180.995 344.698 181.387 344.695 181.848V185.523H343.335V182.058C343.335 181.672 343.235 181.37 343.034 181.152C342.836 180.935 342.562 180.826 342.211 180.826C341.973 180.826 341.762 180.878 341.576 180.983C341.393 181.086 341.249 181.235 341.144 181.431C341.041 181.626 340.99 181.863 340.99 182.141ZM348.589 187.808C348.1 187.808 347.68 187.742 347.33 187.609C346.979 187.479 346.697 187.303 346.484 187.083C346.271 186.862 346.123 186.618 346.041 186.35L347.266 186.053C347.321 186.166 347.401 186.277 347.506 186.388C347.612 186.5 347.753 186.593 347.931 186.666C348.111 186.741 348.338 186.778 348.611 186.778C348.997 186.778 349.317 186.684 349.57 186.497C349.823 186.311 349.949 186.005 349.949 185.58V184.486H349.881C349.811 184.626 349.709 184.77 349.573 184.918C349.441 185.066 349.264 185.19 349.043 185.29C348.825 185.39 348.551 185.44 348.22 185.44C347.777 185.44 347.375 185.337 347.014 185.129C346.656 184.918 346.37 184.605 346.157 184.189C345.947 183.771 345.842 183.247 345.842 182.618C345.842 181.984 345.947 181.449 346.157 181.013C346.37 180.575 346.657 180.243 347.018 180.018C347.379 179.79 347.781 179.676 348.224 179.676C348.562 179.676 348.84 179.733 349.058 179.848C349.279 179.961 349.454 180.098 349.585 180.258C349.715 180.416 349.814 180.565 349.881 180.705H349.957V179.751H351.298V185.617C351.298 186.111 351.181 186.519 350.945 186.842C350.71 187.165 350.388 187.407 349.979 187.568C349.571 187.728 349.107 187.808 348.589 187.808ZM348.6 184.373C348.888 184.373 349.134 184.303 349.337 184.163C349.539 184.022 349.694 183.821 349.799 183.558C349.904 183.295 349.957 182.979 349.957 182.611C349.957 182.247 349.904 181.929 349.799 181.656C349.696 181.383 349.543 181.171 349.34 181.021C349.14 180.868 348.893 180.792 348.6 180.792C348.297 180.792 348.044 180.871 347.841 181.028C347.638 181.186 347.485 181.403 347.382 181.679C347.28 181.952 347.228 182.262 347.228 182.611C347.228 182.964 347.28 183.273 347.382 183.539C347.488 183.802 347.642 184.007 347.845 184.155C348.05 184.301 348.302 184.373 348.6 184.373ZM354.053 177.827V185.523H352.693V177.827H354.053ZM355.452 185.523V179.751H356.812V185.523H355.452ZM356.136 178.931C355.92 178.931 355.735 178.86 355.58 178.717C355.424 178.572 355.347 178.398 355.347 178.195C355.347 177.989 355.424 177.815 355.58 177.673C355.735 177.527 355.92 177.455 356.136 177.455C356.354 177.455 356.539 177.527 356.692 177.673C356.847 177.815 356.925 177.989 356.925 178.195C356.925 178.398 356.847 178.572 356.692 178.717C356.539 178.86 356.354 178.931 356.136 178.931ZM362.774 181.277L361.533 181.412C361.498 181.287 361.437 181.169 361.349 181.059C361.264 180.948 361.149 180.859 361.004 180.792C360.858 180.724 360.68 180.69 360.47 180.69C360.187 180.69 359.949 180.752 359.756 180.874C359.565 180.997 359.472 181.156 359.474 181.352C359.472 181.52 359.533 181.656 359.658 181.761C359.786 181.867 359.996 181.953 360.29 182.021L361.274 182.231C361.82 182.349 362.226 182.535 362.492 182.791C362.76 183.047 362.895 183.381 362.898 183.794C362.895 184.158 362.789 184.478 362.578 184.757C362.37 185.032 362.081 185.248 361.71 185.403C361.339 185.558 360.913 185.636 360.432 185.636C359.726 185.636 359.157 185.488 358.726 185.192C358.295 184.894 358.038 184.48 357.956 183.949L359.282 183.821C359.342 184.081 359.47 184.278 359.666 184.411C359.861 184.544 360.115 184.61 360.429 184.61C360.752 184.61 361.011 184.544 361.206 184.411C361.404 184.278 361.503 184.114 361.503 183.918C361.503 183.753 361.439 183.617 361.312 183.509C361.186 183.401 360.991 183.318 360.725 183.261L359.741 183.054C359.187 182.939 358.778 182.745 358.512 182.472C358.246 182.196 358.115 181.848 358.117 181.427C358.115 181.071 358.211 180.763 358.407 180.502C358.605 180.239 358.879 180.036 359.23 179.894C359.583 179.748 359.99 179.676 360.451 179.676C361.128 179.676 361.66 179.82 362.048 180.108C362.439 180.396 362.681 180.785 362.774 181.277ZM365.38 182.141V185.523H364.019V177.827H365.35V180.732H365.417C365.553 180.406 365.762 180.149 366.045 179.961C366.331 179.771 366.694 179.676 367.135 179.676C367.536 179.676 367.885 179.759 368.183 179.927C368.482 180.095 368.712 180.341 368.875 180.664C369.04 180.987 369.123 181.382 369.123 181.848V185.523H367.762V182.058C367.762 181.67 367.662 181.368 367.462 181.152C367.264 180.935 366.986 180.826 366.628 180.826C366.387 180.826 366.172 180.878 365.981 180.983C365.793 181.086 365.645 181.235 365.538 181.431C365.432 181.626 365.38 181.863 365.38 182.141ZM376.633 181.115V182.235H373.168V181.115H376.633ZM381.779 177.827L383.782 183.885H383.861L385.86 177.827H387.394L384.68 185.523H382.959L380.25 177.827H381.779ZM390.245 185.636C389.682 185.636 389.193 185.512 388.78 185.264C388.366 185.016 388.046 184.669 387.818 184.223C387.592 183.777 387.479 183.256 387.479 182.659C387.479 182.063 387.592 181.541 387.818 181.092C388.046 180.644 388.366 180.296 388.78 180.048C389.193 179.8 389.682 179.676 390.245 179.676C390.809 179.676 391.298 179.8 391.711 180.048C392.124 180.296 392.444 180.644 392.669 181.092C392.897 181.541 393.011 182.063 393.011 182.659C393.011 183.256 392.897 183.777 392.669 184.223C392.444 184.669 392.124 185.016 391.711 185.264C391.298 185.512 390.809 185.636 390.245 185.636ZM390.253 184.546C390.558 184.546 390.814 184.462 391.019 184.294C391.225 184.124 391.378 183.896 391.478 183.61C391.581 183.325 391.632 183.006 391.632 182.656C391.632 182.302 391.581 181.983 391.478 181.697C391.378 181.409 391.225 181.18 391.019 181.01C390.814 180.839 390.558 180.754 390.253 180.754C389.94 180.754 389.679 180.839 389.471 181.01C389.266 181.18 389.112 181.409 389.009 181.697C388.909 181.983 388.859 182.302 388.859 182.656C388.859 183.006 388.909 183.325 389.009 183.61C389.112 183.896 389.266 184.124 389.471 184.294C389.679 184.462 389.94 184.546 390.253 184.546ZM395.827 185.64C395.461 185.64 395.132 185.575 394.839 185.444C394.548 185.311 394.317 185.116 394.147 184.858C393.979 184.6 393.895 184.282 393.895 183.903C393.895 183.578 393.955 183.308 394.076 183.095C394.196 182.882 394.36 182.712 394.568 182.584C394.776 182.457 395.01 182.36 395.271 182.295C395.534 182.227 395.806 182.178 396.086 182.148C396.424 182.113 396.699 182.082 396.909 182.054C397.12 182.024 397.273 181.979 397.368 181.919C397.465 181.857 397.514 181.76 397.514 181.63V181.607C397.514 181.324 397.43 181.105 397.263 180.95C397.095 180.794 396.853 180.717 396.537 180.717C396.204 180.717 395.94 180.789 395.744 180.935C395.551 181.08 395.421 181.251 395.353 181.449L394.083 181.269C394.183 180.918 394.349 180.625 394.579 180.39C394.81 180.152 395.092 179.974 395.425 179.856C395.758 179.736 396.126 179.676 396.53 179.676C396.808 179.676 397.085 179.708 397.36 179.773C397.636 179.838 397.888 179.946 398.116 180.096C398.344 180.244 398.527 180.446 398.664 180.702C398.805 180.957 398.875 181.277 398.875 181.66V185.523H397.567V184.73H397.522C397.439 184.891 397.323 185.041 397.172 185.181C397.025 185.319 396.838 185.43 396.612 185.516C396.389 185.598 396.128 185.64 395.827 185.64ZM396.18 184.64C396.453 184.64 396.69 184.586 396.89 184.478C397.091 184.368 397.245 184.223 397.353 184.042C397.463 183.862 397.518 183.665 397.518 183.452V182.772C397.475 182.807 397.403 182.84 397.3 182.87C397.2 182.9 397.087 182.926 396.962 182.949C396.837 182.971 396.713 182.991 396.59 183.009C396.467 183.027 396.361 183.042 396.27 183.054C396.067 183.082 395.886 183.127 395.725 183.189C395.565 183.252 395.439 183.34 395.346 183.452C395.253 183.563 395.207 183.705 395.207 183.881C395.207 184.131 395.298 184.321 395.481 184.448C395.664 184.576 395.897 184.64 396.18 184.64ZM400.303 185.523V177.827H401.663V180.705H401.72C401.79 180.565 401.889 180.416 402.017 180.258C402.144 180.098 402.317 179.961 402.535 179.848C402.753 179.733 403.031 179.676 403.369 179.676C403.815 179.676 404.218 179.79 404.576 180.018C404.937 180.243 405.222 180.578 405.433 181.021C405.646 181.462 405.752 182.003 405.752 182.644C405.752 183.278 405.648 183.817 405.44 184.26C405.232 184.704 404.949 185.042 404.591 185.275C404.233 185.508 403.827 185.625 403.373 185.625C403.042 185.625 402.768 185.57 402.55 185.459C402.332 185.349 402.157 185.216 402.024 185.061C401.894 184.903 401.792 184.754 401.72 184.614H401.641V185.523H400.303ZM401.637 182.637C401.637 183.01 401.69 183.337 401.795 183.618C401.903 183.898 402.057 184.118 402.257 184.275C402.46 184.431 402.706 184.508 402.994 184.508C403.294 184.508 403.546 184.428 403.749 184.268C403.952 184.105 404.105 183.883 404.207 183.603C404.313 183.32 404.365 182.998 404.365 182.637C404.365 182.279 404.314 181.96 404.211 181.682C404.109 181.404 403.956 181.186 403.753 181.028C403.55 180.871 403.297 180.792 402.994 180.792C402.703 180.792 402.456 180.868 402.253 181.021C402.05 181.174 401.896 181.388 401.791 181.664C401.688 181.939 401.637 182.264 401.637 182.637ZM410.588 183.095V179.751H411.948V185.523H410.629V184.497H410.569C410.439 184.82 410.225 185.085 409.926 185.29C409.631 185.496 409.266 185.598 408.833 185.598C408.454 185.598 408.12 185.514 407.829 185.347C407.541 185.176 407.316 184.929 407.153 184.606C406.99 184.28 406.909 183.887 406.909 183.426V179.751H408.269V183.216C408.269 183.581 408.369 183.872 408.57 184.088C408.77 184.303 409.033 184.411 409.359 184.411C409.559 184.411 409.753 184.362 409.941 184.264C410.129 184.166 410.283 184.021 410.404 183.828C410.526 183.633 410.588 183.389 410.588 183.095ZM414.708 177.827V185.523H413.347V177.827H414.708ZM417.768 185.64C417.402 185.64 417.072 185.575 416.779 185.444C416.489 185.311 416.258 185.116 416.088 184.858C415.92 184.6 415.836 184.282 415.836 183.903C415.836 183.578 415.896 183.308 416.016 183.095C416.137 182.882 416.301 182.712 416.509 182.584C416.717 182.457 416.951 182.36 417.211 182.295C417.474 182.227 417.746 182.178 418.027 182.148C418.365 182.113 418.639 182.082 418.85 182.054C419.06 182.024 419.213 181.979 419.308 181.919C419.406 181.857 419.455 181.76 419.455 181.63V181.607C419.455 181.324 419.371 181.105 419.203 180.95C419.035 180.794 418.794 180.717 418.478 180.717C418.145 180.717 417.88 180.789 417.685 180.935C417.492 181.08 417.362 181.251 417.294 181.449L416.024 181.269C416.124 180.918 416.289 180.625 416.52 180.39C416.75 180.152 417.032 179.974 417.366 179.856C417.699 179.736 418.067 179.676 418.47 179.676C418.748 179.676 419.025 179.708 419.301 179.773C419.577 179.838 419.828 179.946 420.056 180.096C420.284 180.244 420.467 180.446 420.605 180.702C420.745 180.957 420.815 181.277 420.815 181.66V185.523H419.508V184.73H419.463C419.38 184.891 419.263 185.041 419.113 185.181C418.965 185.319 418.779 185.43 418.553 185.516C418.33 185.598 418.068 185.64 417.768 185.64ZM418.121 184.64C418.394 184.64 418.631 184.586 418.831 184.478C419.032 184.368 419.186 184.223 419.293 184.042C419.404 183.862 419.459 183.665 419.459 183.452V182.772C419.416 182.807 419.344 182.84 419.241 182.87C419.141 182.9 419.028 182.926 418.903 182.949C418.777 182.971 418.653 182.991 418.531 183.009C418.408 183.027 418.301 183.042 418.211 183.054C418.008 183.082 417.826 183.127 417.666 183.189C417.506 183.252 417.379 183.34 417.287 183.452C417.194 183.563 417.148 183.705 417.148 183.881C417.148 184.131 417.239 184.321 417.422 184.448C417.605 184.576 417.838 184.64 418.121 184.64ZM422.183 185.523V179.751H423.502V180.713H423.563C423.668 180.38 423.848 180.123 424.104 179.942C424.362 179.759 424.656 179.668 424.987 179.668C425.062 179.668 425.146 179.672 425.239 179.679C425.334 179.684 425.413 179.693 425.475 179.706V180.957C425.418 180.937 425.326 180.919 425.201 180.904C425.078 180.887 424.959 180.878 424.844 180.878C424.596 180.878 424.373 180.932 424.175 181.04C423.98 181.145 423.826 181.292 423.713 181.479C423.6 181.667 423.544 181.884 423.544 182.13V185.523H422.183ZM427.401 187.688C427.215 187.688 427.044 187.673 426.886 187.643C426.73 187.615 426.606 187.583 426.514 187.545L426.829 186.485C427.027 186.543 427.204 186.57 427.359 186.568C427.515 186.565 427.651 186.517 427.769 186.421C427.889 186.329 427.991 186.173 428.073 185.955L428.19 185.643L426.096 179.751H427.54L428.87 184.11H428.93L430.264 179.751H431.711L429.4 186.222C429.292 186.528 429.149 186.79 428.971 187.008C428.794 187.228 428.576 187.396 428.318 187.511C428.062 187.629 427.756 187.688 427.401 187.688Z" fill="#5280FF"/>
</g>
<path d="M290.171 206.716H508V276.63C508 282.475 503.262 287.213 497.417 287.213H300.754C294.909 287.213 290.171 282.475 290.171 276.63V206.716Z" fill="white"/>
<path d="M314.078 220.972H312.204C312.15 220.665 312.052 220.392 311.908 220.155C311.764 219.915 311.586 219.711 311.372 219.544C311.158 219.377 310.914 219.251 310.64 219.168C310.37 219.081 310.077 219.038 309.763 219.038C309.205 219.038 308.711 219.178 308.28 219.459C307.849 219.736 307.512 220.143 307.268 220.681C307.024 221.216 306.902 221.869 306.902 222.64C306.902 223.425 307.024 224.087 307.268 224.625C307.515 225.159 307.853 225.563 308.28 225.837C308.711 226.108 309.204 226.243 309.758 226.243C310.066 226.243 310.353 226.203 310.62 226.123C310.891 226.039 311.133 225.918 311.347 225.757C311.564 225.597 311.746 225.4 311.893 225.166C312.043 224.932 312.147 224.665 312.204 224.364L314.078 224.374C314.007 224.862 313.855 225.32 313.622 225.747C313.391 226.175 313.089 226.552 312.715 226.88C312.341 227.204 311.903 227.457 311.402 227.641C310.901 227.822 310.345 227.912 309.733 227.912C308.831 227.912 308.026 227.703 307.318 227.285C306.61 226.868 306.052 226.265 305.644 225.477C305.237 224.688 305.033 223.743 305.033 222.64C305.033 221.535 305.239 220.589 305.649 219.804C306.06 219.016 306.62 218.413 307.328 217.995C308.036 217.578 308.838 217.369 309.733 217.369C310.304 217.369 310.836 217.449 311.327 217.61C311.818 217.77 312.255 218.005 312.639 218.316C313.024 218.623 313.339 219.001 313.587 219.449C313.837 219.893 314.001 220.401 314.078 220.972ZM317.514 223.262V227.771H315.7V217.509H317.474V221.383H317.564C317.744 220.948 318.023 220.606 318.401 220.356C318.781 220.102 319.266 219.975 319.854 219.975C320.388 219.975 320.854 220.087 321.252 220.31C321.649 220.534 321.957 220.862 322.174 221.293C322.394 221.723 322.504 222.25 322.504 222.871V227.771H320.691V223.152C320.691 222.634 320.557 222.231 320.29 221.944C320.026 221.653 319.655 221.508 319.177 221.508C318.857 221.508 318.569 221.578 318.315 221.718C318.065 221.855 317.868 222.054 317.724 222.315C317.584 222.575 317.514 222.891 317.514 223.262ZM326.568 227.927C326.081 227.927 325.641 227.84 325.25 227.666C324.863 227.489 324.556 227.229 324.328 226.885C324.105 226.541 323.993 226.116 323.993 225.612C323.993 225.178 324.073 224.818 324.233 224.535C324.394 224.251 324.612 224.023 324.89 223.853C325.167 223.683 325.479 223.554 325.827 223.467C326.177 223.377 326.54 223.312 326.914 223.272C327.365 223.225 327.731 223.183 328.011 223.147C328.292 223.106 328.496 223.046 328.623 222.966C328.753 222.883 328.818 222.754 328.818 222.58V222.55C328.818 222.173 328.706 221.88 328.482 221.673C328.259 221.466 327.936 221.363 327.515 221.363C327.071 221.363 326.719 221.46 326.458 221.653C326.201 221.847 326.027 222.076 325.937 222.34L324.243 222.099C324.377 221.632 324.597 221.241 324.905 220.927C325.212 220.609 325.588 220.372 326.032 220.215C326.476 220.055 326.967 219.975 327.505 219.975C327.876 219.975 328.245 220.018 328.613 220.105C328.98 220.192 329.316 220.335 329.62 220.536C329.924 220.733 330.168 221.002 330.351 221.343C330.538 221.683 330.632 222.109 330.632 222.62V227.771H328.888V226.714H328.828C328.718 226.928 328.563 227.128 328.362 227.316C328.165 227.499 327.916 227.648 327.615 227.761C327.318 227.872 326.969 227.927 326.568 227.927ZM327.039 226.594C327.403 226.594 327.719 226.522 327.986 226.378C328.254 226.232 328.459 226.038 328.603 225.797C328.75 225.557 328.823 225.294 328.823 225.011V224.104C328.766 224.15 328.669 224.194 328.532 224.234C328.399 224.274 328.249 224.309 328.081 224.339C327.914 224.369 327.749 224.396 327.585 224.419C327.422 224.443 327.28 224.463 327.159 224.479C326.889 224.516 326.647 224.576 326.433 224.66C326.219 224.743 326.05 224.86 325.927 225.011C325.803 225.158 325.741 225.348 325.741 225.582C325.741 225.916 325.863 226.168 326.107 226.338C326.351 226.509 326.662 226.594 327.039 226.594ZM332.456 230.658V220.075H334.24V221.348H334.345C334.438 221.161 334.57 220.962 334.741 220.751C334.911 220.538 335.142 220.356 335.432 220.205C335.723 220.052 336.094 219.975 336.545 219.975C337.139 219.975 337.675 220.127 338.153 220.431C338.634 220.731 339.015 221.177 339.296 221.769C339.58 222.357 339.722 223.078 339.722 223.933C339.722 224.778 339.583 225.497 339.306 226.088C339.028 226.679 338.651 227.13 338.173 227.441C337.696 227.751 337.154 227.907 336.55 227.907C336.109 227.907 335.743 227.833 335.452 227.686C335.162 227.539 334.928 227.362 334.751 227.155C334.577 226.945 334.442 226.746 334.345 226.559H334.27V230.658H332.456ZM334.235 223.923C334.235 224.421 334.305 224.857 334.445 225.231C334.589 225.605 334.794 225.897 335.061 226.108C335.332 226.315 335.659 226.419 336.044 226.419C336.444 226.419 336.78 226.312 337.051 226.098C337.321 225.881 337.525 225.585 337.662 225.211C337.802 224.834 337.873 224.404 337.873 223.923C337.873 223.446 337.804 223.021 337.667 222.65C337.53 222.28 337.326 221.989 337.056 221.779C336.785 221.568 336.448 221.463 336.044 221.463C335.656 221.463 335.327 221.565 335.056 221.769C334.786 221.972 334.58 222.258 334.44 222.625C334.303 222.993 334.235 223.425 334.235 223.923ZM345.118 220.075V221.478H340.694V220.075H345.118ZM341.786 218.231H343.6V225.457C343.6 225.7 343.637 225.887 343.71 226.018C343.787 226.145 343.887 226.232 344.011 226.278C344.134 226.325 344.271 226.348 344.422 226.348C344.535 226.348 344.639 226.34 344.732 226.323C344.829 226.307 344.903 226.292 344.953 226.278L345.258 227.696C345.162 227.73 345.023 227.766 344.843 227.807C344.666 227.847 344.448 227.87 344.191 227.877C343.737 227.89 343.328 227.822 342.964 227.671C342.599 227.518 342.31 227.28 342.097 226.96C341.886 226.639 341.783 226.238 341.786 225.757V218.231ZM349.96 227.922C349.188 227.922 348.522 227.761 347.961 227.441C347.403 227.117 346.973 226.659 346.673 226.068C346.372 225.473 346.222 224.773 346.222 223.968C346.222 223.177 346.372 222.482 346.673 221.884C346.977 221.283 347.401 220.815 347.945 220.481C348.49 220.143 349.13 219.975 349.865 219.975C350.339 219.975 350.787 220.052 351.208 220.205C351.632 220.356 352.006 220.589 352.33 220.907C352.657 221.224 352.915 221.628 353.102 222.119C353.289 222.607 353.382 223.188 353.382 223.863V224.419H347.074V223.197H351.643C351.64 222.849 351.565 222.54 351.418 222.27C351.271 221.996 351.066 221.78 350.802 221.623C350.541 221.466 350.237 221.388 349.89 221.388C349.519 221.388 349.193 221.478 348.913 221.658C348.632 221.835 348.413 222.069 348.256 222.36C348.102 222.647 348.024 222.963 348.021 223.307V224.374C348.021 224.822 348.102 225.206 348.266 225.527C348.43 225.844 348.659 226.088 348.953 226.258C349.247 226.425 349.591 226.509 349.985 226.509C350.249 226.509 350.488 226.472 350.701 226.399C350.915 226.322 351.101 226.21 351.258 226.063C351.415 225.916 351.533 225.734 351.613 225.517L353.307 225.707C353.2 226.155 352.996 226.546 352.696 226.88C352.398 227.21 352.018 227.468 351.553 227.651C351.089 227.832 350.558 227.922 349.96 227.922ZM354.917 227.771V220.075H356.676V221.358H356.756C356.896 220.913 357.137 220.571 357.477 220.33C357.821 220.087 358.214 219.965 358.655 219.965C358.755 219.965 358.867 219.97 358.991 219.98C359.117 219.986 359.223 219.998 359.306 220.015V221.683C359.229 221.657 359.107 221.633 358.94 221.613C358.777 221.59 358.618 221.578 358.464 221.578C358.134 221.578 357.836 221.65 357.572 221.794C357.312 221.934 357.106 222.129 356.956 222.38C356.806 222.63 356.731 222.919 356.731 223.247V227.771H354.917ZM367.559 227.912C366.891 227.912 366.293 227.787 365.765 227.536C365.237 227.282 364.818 226.935 364.507 226.494C364.2 226.053 364.036 225.548 364.016 224.98H365.82C365.854 225.401 366.036 225.745 366.366 226.013C366.697 226.277 367.095 226.409 367.559 226.409C367.923 226.409 368.247 226.325 368.531 226.158C368.815 225.991 369.039 225.759 369.202 225.462C369.366 225.164 369.446 224.825 369.443 224.444C369.446 224.057 369.365 223.713 369.197 223.412C369.03 223.111 368.802 222.876 368.511 222.706C368.22 222.532 367.886 222.445 367.509 222.445C367.202 222.442 366.899 222.498 366.602 222.615C366.305 222.732 366.069 222.886 365.895 223.076L364.217 222.801L364.753 217.509H370.706V219.063H366.291L365.996 221.784H366.056C366.246 221.56 366.515 221.374 366.862 221.227C367.21 221.077 367.591 221.002 368.005 221.002C368.626 221.002 369.181 221.149 369.668 221.443C370.156 221.733 370.54 222.134 370.821 222.645C371.102 223.157 371.242 223.741 371.242 224.399C371.242 225.077 371.085 225.682 370.771 226.213C370.46 226.741 370.028 227.157 369.473 227.461C368.922 227.761 368.284 227.912 367.559 227.912Z" fill="#1D2939"/>
<rect x="305.163" y="251.937" width="67.1104" height="21.1656" rx="10.5828" fill="#F8FAFC"/>
<path d="M316.86 257.655V267.02H315.163V259.306H315.108L312.918 260.705V259.151L315.246 257.655H316.86ZM319.237 267.02V265.794L322.488 262.607C322.799 262.293 323.058 262.014 323.266 261.771C323.473 261.527 323.628 261.29 323.732 261.062C323.836 260.833 323.888 260.589 323.888 260.33C323.888 260.035 323.82 259.782 323.686 259.571C323.552 259.358 323.368 259.193 323.133 259.077C322.898 258.962 322.632 258.904 322.333 258.904C322.025 258.904 321.755 258.968 321.524 259.096C321.292 259.221 321.112 259.399 320.984 259.631C320.859 259.862 320.797 260.138 320.797 260.458H319.182C319.182 259.864 319.318 259.347 319.589 258.908C319.861 258.469 320.234 258.129 320.71 257.889C321.188 257.648 321.737 257.527 322.356 257.527C322.984 257.527 323.535 257.645 324.011 257.879C324.487 258.114 324.855 258.436 325.118 258.844C325.383 259.253 325.515 259.719 325.515 260.243C325.515 260.594 325.448 260.938 325.314 261.277C325.18 261.615 324.944 261.99 324.605 262.402C324.27 262.813 323.799 263.312 323.193 263.897L321.578 265.538V265.602H325.657V267.02H319.237ZM333.51 267.157C332.809 267.157 332.207 267.003 331.704 266.695C331.204 266.387 330.819 265.962 330.547 265.419C330.279 264.874 330.145 264.246 330.145 263.536C330.145 262.822 330.282 262.193 330.557 261.647C330.831 261.098 331.218 260.672 331.718 260.367C332.221 260.059 332.815 259.905 333.501 259.905C334.071 259.905 334.576 260.01 335.015 260.221C335.457 260.428 335.809 260.722 336.071 261.103C336.333 261.481 336.483 261.923 336.519 262.429H334.937C334.873 262.091 334.721 261.809 334.48 261.583C334.242 261.355 333.923 261.24 333.524 261.24C333.186 261.24 332.889 261.332 332.632 261.515C332.376 261.694 332.177 261.954 332.033 262.292C331.893 262.63 331.823 263.036 331.823 263.508C331.823 263.987 331.893 264.398 332.033 264.743C332.174 265.084 332.37 265.348 332.623 265.534C332.879 265.717 333.18 265.808 333.524 265.808C333.768 265.808 333.986 265.762 334.178 265.671C334.373 265.576 334.536 265.441 334.667 265.264C334.798 265.087 334.888 264.872 334.937 264.619H336.519C336.479 265.116 336.333 265.557 336.08 265.941C335.827 266.322 335.483 266.621 335.047 266.837C334.611 267.05 334.099 267.157 333.51 267.157ZM339.899 267.162C339.454 267.162 339.053 267.082 338.697 266.924C338.343 266.762 338.063 266.524 337.855 266.211C337.651 265.897 337.549 265.509 337.549 265.049C337.549 264.653 337.622 264.325 337.769 264.066C337.915 263.807 338.115 263.6 338.368 263.444C338.621 263.289 338.906 263.171 339.223 263.092C339.543 263.01 339.873 262.95 340.215 262.914C340.626 262.871 340.96 262.833 341.216 262.799C341.472 262.763 341.658 262.708 341.774 262.635C341.893 262.559 341.952 262.441 341.952 262.283V262.255C341.952 261.911 341.85 261.644 341.646 261.455C341.442 261.266 341.148 261.172 340.764 261.172C340.358 261.172 340.036 261.26 339.799 261.437C339.564 261.614 339.405 261.822 339.323 262.063L337.778 261.844C337.9 261.417 338.101 261.06 338.381 260.774C338.662 260.484 339.005 260.268 339.41 260.125C339.815 259.978 340.264 259.905 340.754 259.905C341.093 259.905 341.43 259.945 341.765 260.024C342.1 260.103 342.407 260.234 342.684 260.417C342.961 260.597 343.184 260.842 343.352 261.153C343.522 261.464 343.608 261.853 343.608 262.319V267.02H342.016V266.055H341.962C341.861 266.25 341.719 266.433 341.536 266.604C341.356 266.771 341.129 266.907 340.855 267.011C340.584 267.111 340.265 267.162 339.899 267.162ZM340.329 265.945C340.661 265.945 340.949 265.88 341.193 265.749C341.437 265.615 341.625 265.438 341.756 265.218C341.89 264.999 341.957 264.759 341.957 264.5V263.673C341.905 263.715 341.817 263.755 341.692 263.792C341.57 263.828 341.433 263.86 341.28 263.888C341.128 263.915 340.977 263.939 340.828 263.961C340.678 263.982 340.549 264 340.439 264.016C340.192 264.049 339.971 264.104 339.776 264.18C339.581 264.257 339.427 264.363 339.314 264.5C339.201 264.635 339.145 264.808 339.145 265.022C339.145 265.326 339.256 265.557 339.479 265.712C339.701 265.868 339.985 265.945 340.329 265.945ZM345.272 267.02V259.996H346.877V261.167H346.95C347.078 260.762 347.298 260.449 347.609 260.23C347.923 260.007 348.281 259.896 348.683 259.896C348.775 259.896 348.877 259.9 348.989 259.91C349.105 259.916 349.201 259.926 349.278 259.942V261.464C349.207 261.44 349.096 261.419 348.944 261.4C348.794 261.379 348.65 261.368 348.509 261.368C348.208 261.368 347.936 261.434 347.695 261.565C347.458 261.693 347.27 261.871 347.133 262.1C346.996 262.328 346.927 262.592 346.927 262.891V267.02H345.272ZM352.694 267.143C352.143 267.143 351.649 267.002 351.213 266.718C350.777 266.435 350.432 266.023 350.179 265.483C349.926 264.944 349.8 264.289 349.8 263.517C349.8 262.737 349.928 262.078 350.184 261.542C350.443 261.002 350.792 260.595 351.231 260.321C351.67 260.044 352.159 259.905 352.699 259.905C353.11 259.905 353.449 259.975 353.714 260.115C353.979 260.253 354.19 260.419 354.345 260.614C354.5 260.806 354.621 260.987 354.706 261.158H354.775V257.655H356.435V267.02H354.807V265.913H354.706C354.621 266.084 354.497 266.265 354.336 266.457C354.174 266.646 353.961 266.808 353.696 266.942C353.43 267.076 353.097 267.143 352.694 267.143ZM353.156 265.785C353.507 265.785 353.805 265.691 354.052 265.502C354.299 265.31 354.487 265.043 354.615 264.702C354.743 264.36 354.807 263.962 354.807 263.508C354.807 263.054 354.743 262.659 354.615 262.324C354.49 261.989 354.304 261.728 354.057 261.542C353.813 261.356 353.513 261.263 353.156 261.263C352.787 261.263 352.479 261.359 352.232 261.551C351.986 261.743 351.8 262.008 351.675 262.347C351.55 262.685 351.487 263.072 351.487 263.508C351.487 263.947 351.55 264.339 351.675 264.683C351.803 265.025 351.99 265.294 352.237 265.493C352.487 265.688 352.793 265.785 353.156 265.785ZM363.749 261.853L362.241 262.018C362.198 261.865 362.123 261.722 362.017 261.588C361.913 261.454 361.773 261.345 361.596 261.263C361.419 261.181 361.203 261.14 360.947 261.14C360.602 261.14 360.312 261.214 360.078 261.364C359.846 261.513 359.732 261.707 359.735 261.944C359.732 262.149 359.806 262.315 359.959 262.443C360.114 262.571 360.37 262.676 360.727 262.758L361.925 263.014C362.59 263.158 363.083 263.385 363.407 263.696C363.733 264.007 363.897 264.414 363.9 264.916C363.897 265.358 363.768 265.749 363.512 266.087C363.259 266.422 362.907 266.685 362.455 266.874C362.004 267.063 361.486 267.157 360.901 267.157C360.041 267.157 359.349 266.977 358.825 266.617C358.301 266.255 357.988 265.75 357.888 265.104L359.502 264.948C359.575 265.266 359.73 265.505 359.968 265.666C360.206 265.828 360.515 265.909 360.896 265.909C361.289 265.909 361.605 265.828 361.843 265.666C362.084 265.505 362.204 265.305 362.204 265.067C362.204 264.866 362.126 264.7 361.971 264.569C361.818 264.438 361.581 264.337 361.257 264.267L360.059 264.016C359.386 263.875 358.887 263.639 358.564 263.307C358.241 262.972 358.081 262.548 358.084 262.036C358.081 261.603 358.198 261.228 358.436 260.911C358.677 260.591 359.011 260.344 359.438 260.17C359.867 259.993 360.363 259.905 360.924 259.905C361.747 259.905 362.394 260.08 362.867 260.431C363.343 260.781 363.637 261.255 363.749 261.853Z" fill="#667085"/>
<path d="M485.071 259.58C485.879 259.58 486.541 258.919 486.541 258.11C486.541 257.302 485.879 256.641 485.071 256.641C484.262 256.641 483.601 257.302 483.601 258.11C483.601 258.919 484.262 259.58 485.071 259.58ZM485.071 261.05C484.262 261.05 483.601 261.711 483.601 262.52C483.601 263.328 484.262 263.99 485.071 263.99C485.879 263.99 486.541 263.328 486.541 262.52C486.541 261.711 485.879 261.05 485.071 261.05ZM485.071 265.459C484.262 265.459 483.601 266.121 483.601 266.929C483.601 267.738 484.262 268.399 485.071 268.399C485.879 268.399 486.541 267.738 486.541 266.929C486.541 266.121 485.879 265.459 485.071 265.459Z" fill="#667085"/>
<path d="M487.926 273.215C487.923 273.392 487.922 273.569 487.921 273.746L487.92 273.82L487.847 273.823C487.673 273.829 487.499 273.831 487.324 273.832C487.315 275.627 487.32 277.422 487.32 279.218V279.295L487.244 279.296C487.097 279.298 486.949 279.299 486.802 279.303L486.722 279.305L486.723 279.224C486.726 279.048 486.725 278.873 486.721 278.698C486.122 278.693 485.523 278.69 484.923 278.7C484.924 279.307 484.922 279.914 484.923 280.521C485.097 280.524 485.273 280.532 485.449 280.52L485.545 280.513L485.53 280.61C485.505 280.785 485.522 280.962 485.523 281.138C485.688 281.147 485.855 281.148 486.023 281.149H486.094L486.1 281.221C486.128 281.596 486.114 281.973 486.12 282.35C486.292 282.357 486.465 282.36 486.639 282.361L486.714 282.362L486.714 282.439C486.717 282.815 486.716 283.191 486.722 283.567C486.896 283.57 487.071 283.579 487.246 283.568L487.335 283.563L487.328 283.652C487.299 284.029 487.324 284.408 487.321 284.785C487.491 284.788 487.66 284.791 487.829 284.792H487.905L487.906 284.869C487.914 285.45 487.91 286.032 487.918 286.613C488.904 286.627 489.892 286.629 490.878 286.628C491.889 286.626 492.899 286.635 493.909 286.61C493.893 286.03 493.944 285.451 493.921 284.872L493.918 284.789L494 284.791C494.169 284.796 494.339 284.792 494.508 284.787C494.514 284.21 494.515 283.633 494.515 283.057V282.985L494.585 282.978C494.757 282.962 494.93 282.96 495.105 282.962C495.109 282.316 495.097 281.671 495.117 281.025V281.023V281.021C495.095 280.246 495.11 279.47 495.101 278.694C494.93 278.695 494.759 278.693 494.589 278.691L494.515 278.69L494.513 278.614C494.51 278.443 494.508 278.271 494.511 278.099C494.335 278.094 494.16 278.099 493.986 278.089L493.919 278.085L493.914 278.017C493.902 277.839 493.908 277.659 493.906 277.479C493.533 277.477 493.161 277.48 492.79 277.475L492.715 277.474L492.714 277.398C492.711 277.227 492.709 277.056 492.711 276.884C492.14 276.853 491.567 276.873 490.996 276.867L490.923 276.866L490.92 276.792C490.912 276.616 490.909 276.44 490.909 276.262C490.538 276.26 490.166 276.263 489.795 276.255L489.721 276.253L489.72 276.178C489.713 275.396 489.717 274.614 489.715 273.833C489.616 273.832 489.516 273.831 489.417 273.831C489.344 273.831 489.27 273.831 489.196 273.832L489.117 273.833L489.118 273.752C489.121 273.573 489.121 273.394 489.104 273.215C488.711 273.217 488.318 273.218 487.925 273.215H487.926Z" fill="white"/>
<path d="M487.926 273.215C487.923 273.392 487.922 273.569 487.921 273.746L487.92 273.82L487.847 273.823C487.673 273.829 487.499 273.831 487.324 273.832C487.315 275.627 487.32 277.422 487.32 279.218V279.295L487.244 279.296C487.097 279.298 486.949 279.299 486.802 279.303L486.722 279.305L486.723 279.224C486.726 279.048 486.725 278.873 486.721 278.698C486.122 278.693 485.523 278.69 484.923 278.7C484.924 279.307 484.922 279.914 484.923 280.521C485.097 280.524 485.273 280.532 485.449 280.52L485.545 280.513L485.53 280.61C485.505 280.785 485.522 280.962 485.523 281.138C485.688 281.147 485.855 281.148 486.023 281.149H486.094L486.1 281.221C486.128 281.596 486.114 281.973 486.12 282.35C486.292 282.357 486.465 282.36 486.639 282.361L486.714 282.362L486.714 282.439C486.717 282.815 486.716 283.191 486.722 283.567C486.896 283.57 487.071 283.579 487.246 283.568L487.335 283.563L487.328 283.652C487.299 284.029 487.324 284.408 487.321 284.785C487.491 284.788 487.66 284.791 487.829 284.792H487.905L487.906 284.869C487.914 285.45 487.91 286.032 487.918 286.613C488.904 286.627 489.892 286.629 490.878 286.628C491.889 286.626 492.899 286.635 493.909 286.61C493.893 286.03 493.944 285.451 493.921 284.872L493.918 284.789L494 284.791C494.169 284.796 494.339 284.792 494.508 284.787C494.514 284.21 494.515 283.633 494.515 283.057V282.985L494.585 282.978C494.757 282.962 494.93 282.96 495.105 282.962C495.109 282.316 495.097 281.671 495.117 281.025V281.023V281.021C495.095 280.246 495.11 279.47 495.101 278.694C494.93 278.695 494.759 278.693 494.589 278.691L494.515 278.69L494.513 278.614C494.51 278.443 494.508 278.271 494.511 278.099C494.335 278.094 494.16 278.099 493.986 278.089L493.919 278.085L493.914 278.017C493.902 277.839 493.908 277.659 493.906 277.479C493.533 277.477 493.161 277.48 492.79 277.475L492.715 277.474L492.714 277.398C492.711 277.227 492.709 277.056 492.711 276.884C492.14 276.853 491.567 276.873 490.996 276.867L490.923 276.866L490.92 276.792C490.912 276.616 490.909 276.44 490.909 276.262C490.538 276.26 490.166 276.263 489.795 276.255L489.721 276.253L489.72 276.178C489.713 275.396 489.717 274.614 489.715 273.833C489.616 273.832 489.516 273.831 489.417 273.831C489.344 273.831 489.27 273.831 489.196 273.832L489.117 273.833L489.118 273.752C489.121 273.573 489.121 273.394 489.104 273.215C488.711 273.217 488.318 273.218 487.925 273.215H487.926Z" fill="white"/>
<path d="M488.138 273.215C488.531 273.218 488.923 273.217 489.316 273.216C489.335 273.416 489.334 273.618 489.33 273.818C488.931 273.822 488.532 273.817 488.133 273.822C488.134 273.62 488.135 273.418 488.138 273.215Z" fill="#333E46"/>
<path d="M487.134 273.769C487.332 273.768 487.531 273.768 487.73 273.759C487.73 275.993 487.734 278.226 487.731 280.46C487.531 280.465 487.331 280.465 487.131 280.46C487.127 280.26 487.127 280.06 487.13 279.86C486.931 279.852 486.732 279.853 486.533 279.854C486.527 279.65 486.525 279.445 486.533 279.241C486.731 279.233 486.93 279.236 487.129 279.233C487.13 277.411 487.124 275.59 487.134 273.769Z" fill="#333E46"/>
<path d="M489.207 273.761C489.405 273.758 489.603 273.759 489.801 273.761C489.804 274.569 489.798 275.377 489.807 276.184C490.203 276.195 490.599 276.189 490.996 276.191C490.995 276.392 490.996 276.594 491.007 276.795C491.604 276.805 492.201 276.781 492.797 276.813C492.795 277.01 492.796 277.206 492.8 277.403C493.197 277.411 493.595 277.406 493.992 277.408C493.995 277.61 493.982 277.813 494.003 278.015C494.201 278.032 494.399 278.022 494.597 278.028C494.594 278.225 494.595 278.422 494.6 278.619C494.796 278.623 494.991 278.624 495.188 278.623C495.197 279.399 495.182 280.176 495.203 280.952C495.184 281.598 495.195 282.245 495.191 282.891C494.994 282.889 494.797 282.889 494.602 282.913C494.601 283.514 494.601 284.115 494.594 284.715C494.398 284.721 494.201 284.728 494.005 284.718C493.983 284.107 493.993 283.495 493.999 282.884C494.197 282.886 494.394 282.886 494.592 282.884C494.592 281.464 494.594 280.044 494.594 278.624C494.397 278.622 494.2 278.622 494.002 278.624C493.991 278.427 494.004 278.228 493.988 278.031C493.792 277.992 493.592 278.016 493.394 278.015C493.39 278.624 493.401 279.233 493.389 279.843C493.194 279.843 492.998 279.843 492.803 279.844C492.789 279.031 492.803 278.219 492.798 277.406C492.397 277.404 491.997 277.405 491.597 277.406C491.597 278.015 491.603 278.623 491.596 279.232C491.397 279.236 491.199 279.236 491.001 279.232C490.997 278.42 490.997 277.608 491.006 276.796C490.605 276.794 490.205 276.794 489.804 276.799C489.8 277.61 489.807 278.421 489.804 279.232C489.603 279.238 489.403 279.238 489.202 279.232C489.202 277.409 489.203 275.585 489.207 273.761Z" fill="#333E46"/>
<path d="M484.924 278.661C485.523 278.651 486.122 278.654 486.721 278.659C486.726 278.861 486.729 279.062 486.723 279.264C486.326 279.274 485.928 279.267 485.531 279.27C485.517 279.672 485.552 280.075 485.526 280.477C485.325 280.501 485.124 280.485 484.923 280.481C484.922 279.874 484.925 279.268 484.924 278.661Z" fill="#333E46"/>
<path d="M485.485 280.306C485.677 280.276 485.872 280.287 486.066 280.293C486.071 280.496 486.071 280.699 486.069 280.903C486.269 280.904 486.469 280.903 486.669 280.906C486.673 281.311 486.669 281.716 486.671 282.121C486.869 282.12 487.066 282.12 487.264 282.123C487.261 282.529 487.29 282.938 487.249 283.342C487.054 283.36 486.859 283.346 486.665 283.343C486.659 282.942 486.66 282.54 486.656 282.139C486.458 282.138 486.261 282.134 486.063 282.126C486.056 281.726 486.076 281.326 486.04 280.927C485.849 280.928 485.657 280.924 485.466 280.914C485.465 280.711 485.439 280.506 485.485 280.306Z" fill="#333E46"/>
<path d="M487.084 283.558C487.279 283.543 487.476 283.552 487.672 283.553C487.677 283.958 487.672 284.362 487.674 284.765C487.873 284.765 488.073 284.765 488.273 284.772C488.276 285.176 488.269 285.58 488.275 285.984C489.868 285.988 491.461 285.988 493.055 285.987C493.061 285.582 493.053 285.178 493.057 284.773C493.261 284.77 493.465 284.767 493.669 284.779C493.701 285.385 493.643 285.992 493.66 286.599C492.65 286.624 491.639 286.615 490.629 286.617C489.642 286.618 488.655 286.617 487.669 286.602C487.66 285.995 487.665 285.389 487.656 284.782C487.461 284.782 487.266 284.779 487.072 284.775C487.075 284.369 487.043 283.961 487.084 283.558Z" fill="#333E46"/>
</g>
<g filter="url(#filter1_d_51_3513)">
<g clip-path="url(#clip2_51_3513)">
<rect x="323.435" y="296.822" width="184.558" height="92.2792" rx="6.15195" fill="#F8FAFC"/>
<g clip-path="url(#clip3_51_3513)">
<mask id="path-32-inside-1_51_3513" fill="white">
<path d="M323.435 296.822H507.993V389.101H323.435V296.822Z"/>
</mask>
<path d="M323.435 296.822H507.993V389.101H323.435V296.822Z" fill="white"/>
<rect width="184.558" height="46.1396" transform="translate(323.435 296.822)" fill="white"/>
<rect x="329.971" y="303.358" width="171.485" height="29.9907" rx="2.69148" fill="white"/>
<rect x="329.971" y="303.358" width="171.485" height="29.9907" rx="2.69148" stroke="white" stroke-width="0.768993"/>
<path d="M341.89 310.664H357.27V326.044H341.89V310.664Z" fill="white"/>
<path d="M343.813 321.853V323.801C343.813 323.98 343.954 324.121 344.133 324.121H346.082C346.165 324.121 346.248 324.089 346.306 324.025L353.304 317.034L350.901 314.631L343.909 321.622C343.845 321.686 343.813 321.763 343.813 321.853ZM355.162 315.175C355.412 314.925 355.412 314.522 355.162 314.272L353.663 312.772C353.413 312.522 353.009 312.522 352.759 312.772L351.586 313.945L353.989 316.348L355.162 315.175Z" fill="#667085"/>
<path d="M367.821 323.353V312.428H374.415V313.602H369.144V317.293H374.073V318.467H369.144V322.18H374.5V323.353H367.821ZM379.723 323.524C379.04 323.524 378.437 323.352 377.914 323.007C377.391 322.658 376.982 322.167 376.687 321.534C376.392 320.898 376.244 320.146 376.244 319.278C376.244 318.417 376.392 317.67 376.687 317.037C376.982 316.404 377.393 315.915 377.919 315.57C378.446 315.225 379.054 315.053 379.744 315.053C380.277 315.053 380.699 315.142 381.008 315.32C381.321 315.494 381.559 315.693 381.723 315.917C381.89 316.138 382.02 316.319 382.112 316.461H382.219V312.428H383.478V323.353H382.262V322.095H382.112C382.02 322.244 381.888 322.432 381.718 322.66C381.547 322.884 381.303 323.085 380.987 323.263C380.67 323.437 380.249 323.524 379.723 323.524ZM379.893 322.393C380.398 322.393 380.825 322.262 381.174 321.999C381.522 321.732 381.787 321.364 381.968 320.894C382.15 320.421 382.24 319.875 382.24 319.257C382.24 318.645 382.152 318.11 381.974 317.651C381.796 317.188 381.533 316.829 381.184 316.573C380.836 316.314 380.405 316.184 379.893 316.184C379.36 316.184 378.915 316.321 378.56 316.595C378.208 316.865 377.943 317.233 377.765 317.699C377.591 318.161 377.503 318.68 377.503 319.257C377.503 319.84 377.592 320.37 377.77 320.846C377.951 321.319 378.218 321.696 378.57 321.977C378.926 322.255 379.367 322.393 379.893 322.393ZM385.959 323.353V315.16H387.218V323.353H385.959ZM386.599 313.794C386.353 313.794 386.142 313.71 385.964 313.543C385.79 313.376 385.703 313.175 385.703 312.94C385.703 312.706 385.79 312.505 385.964 312.338C386.142 312.17 386.353 312.087 386.599 312.087C386.844 312.087 387.054 312.17 387.228 312.338C387.406 312.505 387.495 312.706 387.495 312.94C387.495 313.175 387.406 313.376 387.228 313.543C387.054 313.71 386.844 313.794 386.599 313.794ZM393.087 315.16V316.226H388.841V315.16H393.087ZM390.078 313.196H391.337V321.006C391.337 321.362 391.389 321.629 391.492 321.806C391.599 321.981 391.734 322.098 391.897 322.159C392.065 322.215 392.241 322.244 392.426 322.244C392.564 322.244 392.678 322.237 392.767 322.223C392.856 322.205 392.927 322.191 392.98 322.18L393.236 323.311C393.151 323.343 393.032 323.375 392.879 323.407C392.726 323.442 392.532 323.46 392.298 323.46C391.942 323.46 391.593 323.384 391.252 323.231C390.914 323.078 390.633 322.845 390.409 322.532C390.189 322.219 390.078 321.824 390.078 321.348V313.196Z" fill="#101828"/>
<mask id="path-38-inside-2_51_3513" fill="white">
<path d="M323.435 342.961H507.993V389.101H323.435V342.961Z"/>
</mask>
<path d="M323.435 342.961H507.993V389.101H323.435V342.961Z" fill="white"/>
<path d="M323.435 343.73H507.993V342.192H323.435V343.73Z" fill="#EAECF0" mask="url(#path-38-inside-2_51_3513)"/>
<rect x="329.971" y="349.498" width="171.485" height="29.9907" rx="2.69148" fill="white"/>
<rect x="329.971" y="349.498" width="171.485" height="29.9907" rx="2.69148" stroke="white" stroke-width="0.768993"/>
<path d="M345.735 368.979C345.735 369.684 346.312 370.261 347.017 370.261H352.144C352.849 370.261 353.425 369.684 353.425 368.979V362.571C353.425 361.866 352.849 361.289 352.144 361.289H347.017C346.312 361.289 345.735 361.866 345.735 362.571V368.979ZM353.425 359.367H351.823L351.368 358.912C351.253 358.796 351.086 358.726 350.92 358.726H348.241C348.075 358.726 347.908 358.796 347.793 358.912L347.338 359.367H345.735C345.383 359.367 345.095 359.655 345.095 360.008C345.095 360.36 345.383 360.648 345.735 360.648H353.425C353.778 360.648 354.066 360.36 354.066 360.008C354.066 359.655 353.778 359.367 353.425 359.367Z" fill="#667085"/>
<path d="M371.193 369.493H367.821V358.568H371.342C372.402 358.568 373.309 358.787 374.063 359.224C374.817 359.658 375.394 360.282 375.796 361.097C376.198 361.907 376.399 362.878 376.399 364.009C376.399 365.147 376.196 366.127 375.791 366.949C375.386 367.767 374.795 368.396 374.02 368.837C373.245 369.274 372.302 369.493 371.193 369.493ZM369.144 368.32H371.107C372.011 368.32 372.759 368.145 373.353 367.797C373.947 367.448 374.39 366.952 374.681 366.308C374.973 365.665 375.119 364.898 375.119 364.009C375.119 363.127 374.975 362.368 374.687 361.731C374.399 361.091 373.968 360.6 373.396 360.259C372.823 359.914 372.11 359.742 371.257 359.742H369.144V368.32ZM381.883 369.664C381.094 369.664 380.413 369.49 379.84 369.141C379.271 368.789 378.832 368.298 378.522 367.669C378.216 367.036 378.064 366.3 378.064 365.46C378.064 364.621 378.216 363.881 378.522 363.241C378.832 362.597 379.262 362.096 379.813 361.737C380.368 361.374 381.015 361.193 381.755 361.193C382.182 361.193 382.603 361.264 383.019 361.406C383.435 361.548 383.814 361.779 384.156 362.099C384.497 362.416 384.769 362.836 384.972 363.358C385.175 363.881 385.276 364.525 385.276 365.29V365.823H378.96V364.735H383.996C383.996 364.272 383.903 363.86 383.718 363.497C383.537 363.134 383.277 362.848 382.939 362.638C382.605 362.428 382.21 362.324 381.755 362.324C381.254 362.324 380.82 362.448 380.453 362.697C380.091 362.942 379.812 363.262 379.616 363.657C379.42 364.052 379.323 364.475 379.323 364.927V365.652C379.323 366.271 379.429 366.796 379.643 367.226C379.86 367.653 380.16 367.978 380.544 368.202C380.928 368.423 381.375 368.533 381.883 368.533C382.214 368.533 382.513 368.487 382.779 368.394C383.05 368.298 383.283 368.156 383.478 367.968C383.674 367.775 383.825 367.537 383.932 367.253L385.148 367.594C385.02 368.007 384.805 368.369 384.502 368.682C384.2 368.992 383.827 369.234 383.382 369.408C382.938 369.579 382.438 369.664 381.883 369.664ZM388.45 358.568V369.493H387.191V358.568H388.45ZM394.191 369.664C393.402 369.664 392.721 369.49 392.148 369.141C391.579 368.789 391.14 368.298 390.831 367.669C390.525 367.036 390.372 366.3 390.372 365.46C390.372 364.621 390.525 363.881 390.831 363.241C391.14 362.597 391.57 362.096 392.122 361.737C392.676 361.374 393.324 361.193 394.063 361.193C394.49 361.193 394.912 361.264 395.328 361.406C395.744 361.548 396.122 361.779 396.464 362.099C396.805 362.416 397.077 362.836 397.28 363.358C397.483 363.881 397.584 364.525 397.584 365.29V365.823H391.268V364.735H396.304C396.304 364.272 396.211 363.86 396.026 363.497C395.845 363.134 395.585 362.848 395.248 362.638C394.913 362.428 394.519 362.324 394.063 362.324C393.562 362.324 393.128 362.448 392.762 362.697C392.399 362.942 392.12 363.262 391.924 363.657C391.729 364.052 391.631 364.475 391.631 364.927V365.652C391.631 366.271 391.737 366.796 391.951 367.226C392.168 367.653 392.468 367.978 392.852 368.202C393.236 368.423 393.683 368.533 394.191 368.533C394.522 368.533 394.821 368.487 395.088 368.394C395.358 368.298 395.591 368.156 395.786 367.968C395.982 367.775 396.133 367.537 396.24 367.253L397.456 367.594C397.328 368.007 397.113 368.369 396.811 368.682C396.508 368.992 396.135 369.234 395.69 369.408C395.246 369.579 394.746 369.664 394.191 369.664ZM403.063 361.299V362.366H398.816V361.299H403.063ZM400.054 359.336H401.313V367.146C401.313 367.502 401.365 367.768 401.468 367.946C401.574 368.12 401.71 368.238 401.873 368.298C402.04 368.355 402.216 368.384 402.401 368.384C402.54 368.384 402.654 368.376 402.743 368.362C402.832 368.344 402.903 368.33 402.956 368.32L403.212 369.451C403.127 369.483 403.008 369.515 402.855 369.547C402.702 369.582 402.508 369.6 402.273 369.6C401.918 369.6 401.569 369.523 401.228 369.37C400.89 369.218 400.609 368.985 400.385 368.672C400.164 368.359 400.054 367.964 400.054 367.487V359.336ZM408.304 369.664C407.514 369.664 406.833 369.49 406.261 369.141C405.692 368.789 405.253 368.298 404.943 367.669C404.637 367.036 404.484 366.3 404.484 365.46C404.484 364.621 404.637 363.881 404.943 363.241C405.253 362.597 405.683 362.096 406.234 361.737C406.789 361.374 407.436 361.193 408.176 361.193C408.603 361.193 409.024 361.264 409.44 361.406C409.856 361.548 410.235 361.779 410.577 362.099C410.918 362.416 411.19 362.836 411.393 363.358C411.595 363.881 411.697 364.525 411.697 365.29V365.823H405.381V364.735H410.416C410.416 364.272 410.324 363.86 410.139 363.497C409.958 363.134 409.698 362.848 409.36 362.638C409.026 362.428 408.631 362.324 408.176 362.324C407.675 362.324 407.241 362.448 406.874 362.697C406.512 362.942 406.232 363.262 406.037 363.657C405.841 364.052 405.743 364.475 405.743 364.927V365.652C405.743 366.271 405.85 366.796 406.063 367.226C406.28 367.653 406.581 367.978 406.965 368.202C407.349 368.423 407.795 368.533 408.304 368.533C408.635 368.533 408.933 368.487 409.2 368.394C409.47 368.298 409.703 368.156 409.899 367.968C410.095 367.775 410.246 367.537 410.352 367.253L411.569 367.594C411.441 368.007 411.226 368.369 410.923 368.682C410.621 368.992 410.248 369.234 409.803 369.408C409.358 369.579 408.859 369.664 408.304 369.664Z" fill="#101828"/>
</g>
<path d="M323.435 297.591H507.993V296.053H323.435V297.591Z" fill="#EAECF0" mask="url(#path-32-inside-1_51_3513)"/>
</g>
<rect x="323.819" y="297.206" width="183.789" height="91.5102" rx="5.76745" stroke="#EAECF0" stroke-width="0.768993"/>
</g>
</g>
<defs>
<filter id="filter0_dd_51_3513" x="279.588" y="157.33" width="238.994" height="153.146" filterUnits="userSpaceOnUse" color-interpolation-filters="sRGB">
<feFlood flood-opacity="0" result="BackgroundImageFix"/>
<feColorMatrix in="SourceAlpha" type="matrix" values="0 0 0 0 0 0 0 0 0 0 0 0 0 0 0 0 0 0 127 0" result="hardAlpha"/>
<feMorphology radius="3.52759" operator="erode" in="SourceAlpha" result="effect1_dropShadow_51_3513"/>
<feOffset dy="10.5828"/>
<feGaussianBlur stdDeviation="7.05519"/>
<feColorMatrix type="matrix" values="0 0 0 0 0.000292969 0 0 0 0 0.000292969 0 0 0 0 0.000292969 0 0 0 0.08 0"/>
<feBlend mode="normal" in2="BackgroundImageFix" result="effect1_dropShadow_51_3513"/>
<feColorMatrix in="SourceAlpha" type="matrix" values="0 0 0 0 0 0 0 0 0 0 0 0 0 0 0 0 0 0 127 0" result="hardAlpha"/>
<feMorphology radius="1.7638" operator="erode" in="SourceAlpha" result="effect2_dropShadow_51_3513"/>
<feOffset dy="3.52759"/>
<feGaussianBlur stdDeviation="2.6457"/>
<feColorMatrix type="matrix" values="0 0 0 0 0 0 0 0 0 0 0 0 0 0 0 0 0 0 0.03 0"/>
<feBlend mode="normal" in2="effect1_dropShadow_51_3513" result="effect2_dropShadow_51_3513"/>
<feBlend mode="normal" in="SourceGraphic" in2="effect2_dropShadow_51_3513" result="shape"/>
</filter>
<filter id="filter1_d_51_3513" x="287.435" y="284.822" width="256.558" height="164.279" filterUnits="userSpaceOnUse" color-interpolation-filters="sRGB">
<feFlood flood-opacity="0" result="BackgroundImageFix"/>
<feColorMatrix in="SourceAlpha" type="matrix" values="0 0 0 0 0 0 0 0 0 0 0 0 0 0 0 0 0 0 127 0" result="hardAlpha"/>
<feMorphology radius="12" operator="erode" in="SourceAlpha" result="effect1_dropShadow_51_3513"/>
<feOffset dy="24"/>
<feGaussianBlur stdDeviation="24"/>
<feColorMatrix type="matrix" values="0 0 0 0 0 0 0 0 0 0 0 0 0 0 0 0 0 0 0.18 0"/>
<feBlend mode="normal" in2="BackgroundImageFix" result="effect1_dropShadow_51_3513"/>
<feBlend mode="normal" in="SourceGraphic" in2="effect1_dropShadow_51_3513" result="shape"/>
</filter>
<linearGradient id="paint0_linear_51_3513" x1="250.279" y1="122.794" x2="250.279" y2="333.37" gradientUnits="userSpaceOnUse">
<stop stop-color="#5BB1E0"/>
<stop offset="0.229272" stop-color="#0591DE"/>
</linearGradient>
<linearGradient id="paint1_linear_51_3513" x1="250.279" y1="142.119" x2="250.279" y2="159.712" gradientUnits="userSpaceOnUse">
<stop stop-color="#003C5C"/>
<stop offset="1" stop-color="#003C5C" stop-opacity="0"/>
</linearGradient>
<clipPath id="clip0_51_3513">
<rect width="632" height="500" rx="16" fill="white"/>
</clipPath>
<clipPath id="clip1_51_3513">
<rect x="297.226" y="164.385" width="203.719" height="35.2759" rx="10.5828" fill="white"/>
</clipPath>
<clipPath id="clip2_51_3513">
<rect x="323.435" y="296.822" width="184.558" height="92.2792" rx="6.15195" fill="white"/>
</clipPath>
<clipPath id="clip3_51_3513">
<path d="M323.435 296.822H507.993V389.101H323.435V296.822Z" fill="white"/>
</clipPath>
</defs>
</svg>
